<svg width="122" height="122" viewBox="0 0 122 122" fill="none" xmlns="http://www.w3.org/2000/svg">
<g filter="url(#filter0_d_1_423)">
<path d="M61 114C92.4802 114 118 88.4802 118 57C118 25.5198 92.4802 0 61 0C29.5198 0 4 25.5198 4 57C4 88.4802 29.5198 114 61 114Z" fill="#82D2FF"/>
<path d="M118 57C118 88.4803 92.4803 114 61 114V0C92.4803 0 118 25.5197 118 57Z" fill="#08B7FC"/>
<path d="M30.7771 65.7666C27.6479 54.9504 30.5215 42.9865 38.754 34.754C43.6745 29.8335 49.91 26.7446 56.7863 25.821C63.4475 24.927 70.3365 26.2104 76.1852 29.4367L79.4115 23.5875C72.3179 19.6748 63.9672 18.1173 55.897 19.2008C47.5567 20.3209 39.9955 24.066 34.0306 30.0308C24.0188 40.0429 20.5458 54.6089 24.4 67.7565L18.8697 65.2942L16.1528 71.3963L32.3682 78.6161L39.5876 62.4003L33.4855 59.6837L30.7771 65.7666ZM105.847 42.6037L89.6319 35.3839L82.4124 51.5997L88.5146 54.3163L91.223 48.2331C94.3522 59.0493 91.4786 71.0133 83.2461 79.2458C78.3256 84.1663 72.0901 87.2552 65.2138 88.1788C58.5524 89.0732 51.6636 87.7893 45.8149 84.563L42.5886 90.4122C48.2107 93.5134 54.6218 95.1352 61.0577 95.1352C62.7423 95.1352 64.4289 95.0239 66.1031 94.799C74.4434 93.6788 82.0045 89.9337 87.9695 83.969C97.9817 73.9568 101.454 59.3909 97.6003 46.2432L103.131 48.7056L105.847 42.6037Z" fill="#F1F1F2"/>
<path d="M76.1854 29.4367L79.4117 23.5875C73.8065 20.4959 67.4163 18.8761 61 18.8665V25.5449C66.2941 25.5527 71.5644 26.8877 76.1854 29.4367ZM105.847 42.6037L89.6318 35.3839L82.4124 51.5997L88.5145 54.3163L91.2229 48.2331C94.3521 59.0493 91.4785 71.0133 83.246 79.2458C78.3255 84.1663 72.0901 87.2552 65.2138 88.1788C63.817 88.3655 62.4092 88.4578 61 88.4549V95.1341C61.0191 95.1341 61.0383 95.135 61.0574 95.135C62.7421 95.135 64.4287 95.0237 66.1028 94.7988C74.4431 93.6786 82.0043 89.9335 87.9692 83.9688C97.9814 73.9566 101.454 59.3907 97.6 46.243L103.13 48.7054L105.847 42.6037Z" fill="#E6E6E6"/>
</g>
<defs>
<filter id="filter0_d_1_423" x="0" y="0" width="122" height="122" filterUnits="userSpaceOnUse" color-interpolation-filters="sRGB">
<feFlood flood-opacity="0" result="BackgroundImageFix"/>
<feColorMatrix in="SourceAlpha" type="matrix" values="0 0 0 0 0 0 0 0 0 0 0 0 0 0 0 0 0 0 127 0" result="hardAlpha"/>
<feOffset dy="4"/>
<feGaussianBlur stdDeviation="2"/>
<feComposite in2="hardAlpha" operator="out"/>
<feColorMatrix type="matrix" values="0 0 0 0 0 0 0 0 0 0 0 0 0 0 0 0 0 0 0.1 0"/>
<feBlend mode="normal" in2="BackgroundImageFix" result="effect1_dropShadow_1_423"/>
<feBlend mode="normal" in="SourceGraphic" in2="effect1_dropShadow_1_423" result="shape"/>
</filter>
</defs>
</svg>
