<svg width="95" height="125" viewBox="0 0 95 125" fill="none" xmlns="http://www.w3.org/2000/svg">
<g filter="url(#filter0_d_1_396)">
<path d="M74.1469 7.78866V108.213C74.1469 112.514 70.6599 116.001 66.3583 116.001H11.7887C7.48704 116.001 4 112.514 4 108.213V7.78866C4 3.48704 7.48704 0 11.7887 0H20.0511L39.6427 2.41269L58.0958 0H66.3583C70.6599 0 74.1469 3.48704 74.1469 7.78866Z" fill="#BD80E1"/>
<path d="M37.5827 88.0343H25.4079C24.4409 88.0343 23.6574 87.2507 23.6574 86.2837C23.6574 85.3168 24.4409 84.5332 25.4079 84.5332H35.8322V76.0567C35.8322 73.0776 38.2561 70.6539 41.2352 70.6539H61.6547C62.6217 70.6539 63.4052 71.4375 63.4052 72.4044C63.4052 73.3714 62.6217 74.155 61.6547 74.155H41.2352C40.1865 74.155 39.3332 75.008 39.3332 76.0567V86.2835C39.3332 86.5134 39.288 86.7411 39.2 86.9535C39.1121 87.1659 38.9831 87.3589 38.8206 87.5215C38.658 87.684 38.465 87.813 38.2526 87.901C38.0402 87.989 37.8126 88.0343 37.5827 88.0343Z" fill="#017297"/>
<path d="M61.6553 88.0343H21.6176C20.6506 88.0343 19.8671 87.2507 19.8671 86.2837C19.8671 85.3168 20.6506 84.5332 21.6176 84.5332H61.6553C62.6223 84.5332 63.4058 85.3168 63.4058 86.2837C63.4058 87.2507 62.6223 88.0343 61.6553 88.0343Z" fill="#017297"/>
<path d="M39.0738 102.537H22.3605C19.3811 102.537 16.9575 100.113 16.9575 97.1342V87.5168C16.9575 86.5498 17.741 85.7663 18.708 85.7663C19.675 85.7663 20.4585 86.5498 20.4585 87.5168V97.1342C20.4585 98.1829 21.3118 99.0362 22.3605 99.0362H39.0738C40.0408 99.0362 40.8243 99.8197 40.8243 100.787C40.8243 101.754 40.0408 102.537 39.0738 102.537Z" fill="#017297"/>
<path d="M66.3582 4.81606e-05H60.5584C64.86 4.81606e-05 68.3471 3.48709 68.3471 7.7887V108.213C68.3471 112.514 64.86 116.001 60.5584 116.001H66.3582C70.6599 116.001 74.1469 112.514 74.1469 108.213V7.7887C74.1469 3.48709 70.6599 4.81606e-05 66.3582 4.81606e-05Z" fill="#AF66DA"/>
<path d="M58.096 4.81606e-05L57.034 5.5457C56.4505 8.59161 53.7874 10.7926 50.6878 10.7926H27.4595C24.3599 10.7926 21.6968 8.59161 21.1133 5.5457L20.0513 4.81606e-05H58.096Z" fill="#017297"/>
<path d="M52.2408 4.81606e-05L51.1788 5.5457C50.5953 8.59161 47.9322 10.7926 44.8326 10.7926H50.6875C53.7871 10.7926 56.4502 8.59161 57.0337 5.5457L58.0957 4.81606e-05H52.2408Z" fill="#025F80"/>
<path d="M86.9608 75.8196H61.3766C59.146 75.8196 57.3376 74.0112 57.3376 71.7806C57.3376 69.5499 59.146 67.7415 61.3766 67.7415H86.9608C89.1915 67.7415 90.9999 69.5499 90.9999 71.7806C90.9999 74.0112 89.1915 75.8196 86.9608 75.8196Z" fill="#D0E7F2"/>
<path d="M86.9607 67.7415H81.821C84.0516 67.7415 85.86 69.5499 85.86 71.7806C85.86 74.0112 84.0516 75.8196 81.821 75.8196H86.9607C89.1914 75.8196 90.9998 74.0112 90.9998 71.7806C90.9998 69.5499 89.1914 67.7415 86.9607 67.7415Z" fill="#B7D9EB"/>
<path d="M86.9608 89.856H61.3766C59.146 89.856 57.3376 88.0476 57.3376 85.8169C57.3376 83.5863 59.146 81.7779 61.3766 81.7779H86.9608C89.1915 81.7779 90.9999 83.5863 90.9999 85.8169C90.9999 88.0476 89.1915 89.856 86.9608 89.856Z" fill="#D0E7F2"/>
<path d="M86.9607 81.7779H81.821C84.0516 81.7779 85.86 83.5863 85.86 85.8169C85.86 88.0476 84.0516 89.856 81.821 89.856H86.9607C89.1914 89.856 90.9998 88.0476 90.9998 85.8169C90.9998 83.5863 89.1914 81.7779 86.9607 81.7779Z" fill="#B7D9EB"/>
<path d="M56.0367 104.826H41.2252C38.9946 104.826 37.1862 103.018 37.1862 100.787C37.1862 98.5563 38.9946 96.7479 41.2252 96.7479H56.0367C58.2673 96.7479 60.0757 98.5563 60.0757 100.787C60.0757 103.018 58.2673 104.826 56.0367 104.826Z" fill="#00F2A6"/>
<path d="M56.0371 96.7479H50.8973C53.1279 96.7479 54.9363 98.5563 54.9363 100.787C54.9363 103.018 53.1279 104.826 50.8973 104.826H56.0371C58.2677 104.826 60.0761 103.018 60.0761 100.787C60.0761 98.5561 58.2677 96.7479 56.0371 96.7479Z" fill="#05E39C"/>
<path d="M21.3689 90.3228H16.0459C13.8152 90.3228 12.0068 88.5144 12.0068 86.2837C12.0068 84.0531 13.8152 82.2447 16.0459 82.2447H21.3689C23.5995 82.2447 25.4079 84.0531 25.4079 86.2837C25.4079 88.5144 23.5995 90.3228 21.3689 90.3228Z" fill="#30DDE5"/>
<path d="M21.3688 82.2447H16.2291C18.4597 82.2447 20.2681 84.0531 20.2681 86.2837C20.2681 88.5144 18.4597 90.3228 16.2291 90.3228H21.3688C23.5995 90.3228 25.4079 88.5144 25.4079 86.2837C25.4079 84.0531 23.5995 82.2447 21.3688 82.2447Z" fill="#02C7DD"/>
<path d="M42.5629 7.42228H35.5851C34.6181 7.42228 33.8345 6.63875 33.8345 5.67176C33.8345 4.70477 34.6181 3.92124 35.5851 3.92124H42.5629C43.5299 3.92124 44.3134 4.70477 44.3134 5.67176C44.3134 6.63875 43.5296 7.42228 42.5629 7.42228Z" fill="#025F80"/>
<path d="M64.8436 9.11866C65.7954 9.11866 66.567 8.34704 66.567 7.39521C66.567 6.44337 65.7954 5.67176 64.8436 5.67176C63.8917 5.67176 63.1201 6.44337 63.1201 7.39521C63.1201 8.34704 63.8917 9.11866 64.8436 9.11866Z" fill="#D0E7F2"/>
<path d="M22.8542 54.7022H22.8356C20.601 54.6992 18.5477 54.1098 16.7328 52.9503C13.2322 50.7138 11.5305 47.8567 11.5305 44.2157V24.9417C11.5305 23.9747 12.314 23.1912 13.281 23.1912C14.248 23.1912 15.0315 23.9747 15.0315 24.9417V44.2157C15.0315 46.6641 16.104 48.3938 18.6177 49.9998C19.862 50.7948 21.2827 51.1991 22.8405 51.2009H22.854C24.243 51.2009 25.5293 50.9078 26.6781 50.3294C29.5818 48.8669 30.9935 46.8606 30.9935 44.1954V24.9417C30.9935 23.9747 31.777 23.1912 32.744 23.1912C33.711 23.1912 34.4945 23.9747 34.4945 24.9417V44.1954C34.4945 48.1973 32.3362 51.3998 28.2526 53.4563C26.6109 54.283 24.7947 54.7022 22.8542 54.7022ZM42.1777 54.3533C41.8523 54.3531 41.5334 54.2622 41.2568 54.0908C40.9802 53.9194 40.7568 53.6743 40.6118 53.383C40.4668 53.0917 40.4058 52.7658 40.4357 52.4418C40.4656 52.1178 40.5853 51.8085 40.7812 51.5487L61.8251 23.64C61.9634 23.4564 62.1366 23.3019 62.3347 23.1853C62.5328 23.0687 62.752 22.9922 62.9797 22.9603C63.2073 22.9283 63.4391 22.9416 63.6616 22.9992C63.8842 23.0569 64.0932 23.1578 64.2767 23.2962C64.4603 23.4346 64.6148 23.6078 64.7314 23.8059C64.848 24.0041 64.9245 24.2232 64.9564 24.4509C64.9883 24.6785 64.9751 24.9102 64.9175 25.1328C64.8598 25.3553 64.7589 25.5643 64.6205 25.7479L43.5767 53.6568C43.4136 53.8735 43.2022 54.0493 42.9594 54.1702C42.7166 54.2911 42.4489 54.3538 42.1777 54.3533Z" fill="#EDF5FA"/>
<path d="M64.7973 54.8488C64.5269 54.8492 64.2602 54.7869 64.018 54.6668C63.7758 54.5467 63.5648 54.372 63.4015 54.1565L41.8451 25.7523C41.5712 25.382 41.4543 24.9187 41.5197 24.4628C41.585 24.0069 41.8274 23.5951 42.1943 23.3167C42.5611 23.0382 43.0229 22.9156 43.4796 22.9753C43.9363 23.035 44.3511 23.2722 44.634 23.6356L66.1904 52.0398C66.3874 52.2994 66.508 52.6087 66.5387 52.9331C66.5694 53.2575 66.5089 53.584 66.3642 53.8759C66.2194 54.1678 65.996 54.4135 65.7192 54.5854C65.4424 54.7573 65.1231 54.8485 64.7973 54.8488Z" fill="#EDF5FA"/>
</g>
<defs>
<filter id="filter0_d_1_396" x="0" y="0" width="94.9999" height="124.001" filterUnits="userSpaceOnUse" color-interpolation-filters="sRGB">
<feFlood flood-opacity="0" result="BackgroundImageFix"/>
<feColorMatrix in="SourceAlpha" type="matrix" values="0 0 0 0 0 0 0 0 0 0 0 0 0 0 0 0 0 0 127 0" result="hardAlpha"/>
<feOffset dy="4"/>
<feGaussianBlur stdDeviation="2"/>
<feComposite in2="hardAlpha" operator="out"/>
<feColorMatrix type="matrix" values="0 0 0 0 0 0 0 0 0 0 0 0 0 0 0 0 0 0 0.1 0"/>
<feBlend mode="normal" in2="BackgroundImageFix" result="effect1_dropShadow_1_396"/>
<feBlend mode="normal" in="SourceGraphic" in2="effect1_dropShadow_1_396" result="shape"/>
</filter>
</defs>
</svg>
