<svg width="141" height="136" viewBox="0 0 141 136" fill="none" xmlns="http://www.w3.org/2000/svg">
<path d="M140.631 51.0613C141.56 53.9166 140.701 57.0482 138.44 59.0222L140.631 51.0613ZM140.631 51.0613C139.703 48.2063 137.177 46.1782 134.18 45.9084L140.631 51.0613ZM71.7821 110.927L70.4993 110.16L69.2167 110.927L34.1252 131.909C34.1246 131.91 34.1241 131.91 34.1235 131.91C33.3209 132.387 32.4398 132.623 31.5591 132.623C30.5368 132.623 29.516 132.305 28.6356 131.668C27.8425 131.094 27.2356 130.299 26.8904 129.383C26.5451 128.466 26.4769 127.468 26.6943 126.512L26.6946 126.511L35.7657 86.5535L36.0952 85.1019L34.976 84.1204L4.21312 57.1429L4.20842 57.1388C3.47144 56.4957 2.93981 55.6502 2.67966 54.7073C2.41951 53.7644 2.44232 52.7659 2.74527 51.8359L2.74655 51.832C3.04775 50.9022 3.61523 50.0812 4.37862 49.4708C5.14202 48.8605 6.06777 48.4876 7.04109 48.3985L47.7419 44.7031L49.2283 44.5682L49.8148 43.1957L65.9064 5.5387C66.7003 3.68677 68.5014 2.5 70.4996 2.5C72.4979 2.5 74.299 3.68683 75.0934 5.53242C75.0937 5.53316 75.0941 5.53391 75.0944 5.53466L91.1845 43.1956L91.7709 44.5682L93.2574 44.7031L133.954 48.3981L133.956 48.3983C135.95 48.5779 137.633 49.925 138.254 51.8344L138.254 51.8345C138.874 53.7412 138.299 55.8261 136.796 57.1389L136.792 57.1424L106.029 84.1151L104.91 85.0965L105.239 86.5483L114.31 126.503C114.755 128.469 113.992 130.491 112.37 131.663L112.368 131.665C110.747 132.839 108.588 132.927 106.886 131.904L106.88 131.901L71.7821 110.927Z" stroke="white" stroke-width="5"/>
</svg>
