<svg width="142" height="144" viewBox="0 0 142 144" fill="none" xmlns="http://www.w3.org/2000/svg">
<path d="M140.043 61.6893C138.55 59.4348 136.286 57.8811 133.655 57.2925C135.353 54.046 135.283 49.9955 133.121 46.7316C131.583 44.4079 129.263 42.9071 126.737 42.339C127.193 41.4686 127.524 40.538 127.719 39.5749C128.271 36.8557 127.732 34.0849 126.2 31.7724C124.707 29.5168 122.443 27.9635 119.812 27.3757C121.51 24.1292 121.441 20.0786 119.279 16.8133C116.118 12.04 109.66 10.7271 104.885 13.8889L94.5471 20.7356C89.0409 17.9425 83.1627 15.9532 77.0919 14.8283C75.1696 11.9089 72.9337 9.1954 70.4311 6.76962L66.1541 2.62457C63.0219 -0.412088 58.1098 -0.867994 54.4736 1.54119C50.1713 4.39025 48.9892 10.2085 51.838 14.5107C51.9499 14.6809 52.0599 14.8525 52.1684 15.0237C38.149 17.8604 25.3718 25.3003 15.9148 36.2018C5.65256 48.0335 0 63.1855 0 78.8677C0 81.8734 0.205312 84.8848 0.611999 87.8159C3.74428 110.603 18.9228 130.24 40.2232 139.065C48.1224 142.338 56.5036 144 65.1312 144C78.7949 144 91.8742 139.815 102.956 131.9C113.797 124.154 121.909 113.466 126.414 100.989C126.518 100.712 126.565 100.417 126.554 100.121C126.543 99.8252 126.473 99.5345 126.349 99.2658C126.224 98.9971 126.048 98.7557 125.83 98.5556C125.611 98.3556 125.356 98.2008 125.077 98.1002C124.799 97.9997 124.503 97.9554 124.207 97.9699C123.912 97.9844 123.622 98.0574 123.354 98.1847C123.087 98.312 122.848 98.491 122.65 98.7115C122.452 98.9319 122.3 99.1894 122.203 99.469C118.007 111.087 110.452 121.041 100.352 128.255C90.0351 135.626 77.8555 139.522 65.1315 139.522C58.5525 139.522 52.1291 138.484 45.9812 136.436L64.1986 124.372C64.1997 124.371 64.2009 124.371 64.2017 124.369C64.2028 124.369 64.2028 124.368 64.204 124.367L79.3442 114.341H79.3453C80.0152 113.9 80.591 113.33 81.0395 112.665C81.488 112 81.8002 111.253 81.9581 110.466C82.2833 108.868 81.9666 107.238 81.0657 105.878L80.866 105.575L83.8068 103.627C85.8982 102.239 88.4361 101.691 90.914 102.092C94.5013 102.671 98.1753 101.877 101.203 99.8666L125.597 83.7125C125.431 85.8216 125.156 87.9206 124.772 90.001C124.718 90.2901 124.722 90.587 124.783 90.8747C124.844 91.1624 124.961 91.4353 125.127 91.6777C125.294 91.9201 125.506 92.1273 125.753 92.2875C126 92.4477 126.275 92.5577 126.565 92.6113C126.702 92.6377 126.84 92.6498 126.975 92.6498C127.498 92.6489 128.004 92.4654 128.405 92.1309C128.807 91.7964 129.079 91.3321 129.174 90.8183C129.794 87.4799 130.152 84.0596 130.244 80.6351L137.118 76.0825C139.431 74.5508 141.009 72.2097 141.561 69.4917C142.114 66.7726 141.574 64.0017 140.043 61.6893ZM90.1996 23.6137L83.3588 28.1446L82.0116 24.5159C81.4491 23.0019 80.8044 21.5178 80.0903 20.0654C83.559 20.9449 86.9422 22.1323 90.1996 23.6137ZM19.2977 39.1367C28.3868 28.659 40.7671 21.6157 54.311 19.1736C56.4842 24.4383 57.0051 30.3203 55.7063 35.9265L50.2472 59.511C49.386 58.5883 48.2579 57.958 47.0207 57.7082C46.235 57.5455 45.4248 57.5406 44.6372 57.6937C43.8496 57.8468 43.1003 58.1549 42.4327 58.6L26.9696 68.8395C26.9685 68.8395 26.9685 68.8395 26.9673 68.8406C26.9673 68.8406 26.9662 68.8406 26.9662 68.8417L4.66368 83.6098C4.54074 82.0319 4.47882 80.4498 4.47806 78.8671C4.47806 64.2641 9.74164 50.1532 19.2974 39.1361L19.2977 39.1367ZM77.5704 109.573C77.528 109.784 77.4445 109.983 77.3245 110.161C77.2046 110.339 77.0506 110.491 76.8715 110.608H76.8726L63.5748 119.414L38.894 82.6064C38.5633 82.1132 38.0503 81.7716 37.4677 81.6567C36.8851 81.5418 36.2808 81.6631 35.7876 81.9938C35.2945 82.3245 34.9529 82.8376 34.838 83.4201C34.7231 84.0027 34.8444 84.607 35.1751 85.1002L59.8407 121.887L40.8574 134.459C21.994 126.208 8.49487 108.783 5.24953 88.5081L27.5779 73.7701L30.1477 77.6043C30.3527 77.91 30.6299 78.1604 30.9548 78.3334C31.2796 78.5065 31.6421 78.5967 32.0102 78.5963C32.4157 78.5958 32.8136 78.4853 33.1612 78.2763C33.5088 78.0674 33.7932 77.768 33.9839 77.4101C34.1747 77.0521 34.2646 76.6491 34.2441 76.2441C34.2237 75.839 34.0936 75.4471 33.8678 75.1102L31.3157 71.3035L44.9057 62.3333C45.0834 62.2146 45.283 62.1325 45.4927 62.0918C45.7025 62.051 45.9183 62.0524 46.1275 62.0959C46.3375 62.1382 46.537 62.2216 46.7147 62.3413C46.8923 62.461 47.0445 62.6147 47.1625 62.7934L77.3324 108.351C77.4509 108.529 77.5328 108.729 77.5736 108.938C77.6143 109.148 77.613 109.364 77.5698 109.573L77.5704 109.573ZM137.173 68.5996C137.021 69.3607 136.719 70.0841 136.285 70.7277C135.851 71.3714 135.293 71.9225 134.645 72.3492L126.787 77.5534C126.784 77.5545 126.782 77.5568 126.779 77.5579L98.7299 96.1336C96.6387 97.5221 94.1006 98.0705 91.6227 97.6692C88.0353 97.0902 84.3615 97.8846 81.3338 99.8939L78.3927 101.842L53.6824 64.529L60.0699 36.937C61.7146 29.829 60.8478 22.3416 57.7144 15.8191C57.6863 15.7513 57.6547 15.6849 57.6199 15.6203C57.0156 14.3828 56.3311 13.1861 55.571 12.0377C54.0857 9.79418 54.7019 6.7609 56.9463 5.2745C58.8428 4.01872 61.4047 4.25609 63.0373 5.83925L67.3143 9.98543C71.9409 14.4714 75.5718 20.0345 77.8128 26.0749L80.1418 32.3493L80.155 32.3822L80.1728 32.4261C80.1891 32.4646 80.2045 32.4998 80.2209 32.5293C80.2659 32.6238 80.3154 32.7172 80.3747 32.8063C80.5369 33.0516 80.7459 33.2624 80.9897 33.4269C81.2334 33.5913 81.5072 33.7061 81.7954 33.7647C82.0835 33.8232 82.3804 33.8244 82.669 33.7682C82.9577 33.7119 83.2324 33.5994 83.4774 33.4369L107.358 17.623C110.074 15.8247 113.747 16.5706 115.546 19.2864C117.344 22.0021 116.598 25.6749 113.882 27.4735L111.809 28.8466C111.809 28.8466 111.808 28.8466 111.807 28.8477L107.183 31.9105C107.176 31.9153 107.171 31.9195 107.165 31.9229C107.138 31.9415 107.113 31.9592 107.092 31.9766C106.137 32.6786 105.889 34.0134 106.552 35.0133C106.714 35.2586 106.923 35.4695 107.167 35.6339C107.411 35.7984 107.685 35.9132 107.973 35.9717C108.261 36.0303 108.558 36.0315 108.847 35.9752C109.136 35.9189 109.41 35.8063 109.656 35.6438L114.283 32.5788C114.929 32.1493 115.653 31.8521 116.414 31.7042C117.176 31.5564 117.959 31.5608 118.718 31.7173C119.479 31.8698 120.202 32.1717 120.846 32.6057C121.489 33.0397 122.04 33.597 122.467 34.2455C122.897 34.8912 123.195 35.6158 123.343 36.3775C123.492 37.1391 123.488 37.9227 123.331 38.6827C123.179 39.4439 122.877 40.1673 122.443 40.8109C122.009 41.4546 121.452 42.0057 120.803 42.4324L114.104 46.8696C113.859 47.0318 113.648 47.2408 113.483 47.4845C113.319 47.7283 113.204 48.0021 113.145 48.2903C113.087 48.5785 113.086 48.8754 113.142 49.164C113.198 49.4526 113.311 49.7273 113.473 49.9724C113.635 50.2177 113.844 50.4286 114.088 50.5931C114.332 50.7576 114.606 50.8724 114.894 50.931C115.182 50.9895 115.479 50.9907 115.767 50.9344C116.056 50.8781 116.331 50.7655 116.576 50.603L117.613 49.9161L121.201 47.5399C123.918 45.7416 127.589 46.4874 129.388 49.2032C131.186 51.92 130.441 55.5918 127.725 57.3915L124.378 59.6072C124.361 59.6184 124.343 59.6305 124.326 59.6423L121.025 61.8276C120.78 61.9899 120.569 62.199 120.404 62.4428C120.24 62.6867 120.125 62.9605 120.067 63.2488C120.008 63.537 120.007 63.8339 120.063 64.1226C120.119 64.4113 120.232 64.6861 120.395 64.9312C120.557 65.1766 120.766 65.3875 121.009 65.552C121.253 65.7165 121.527 65.8314 121.815 65.8899C122.103 65.9485 122.4 65.9497 122.689 65.8934C122.978 65.8371 123.252 65.7244 123.497 65.5618L124.534 64.8753C124.534 64.8753 124.534 64.8741 124.535 64.8741L128.124 62.499C128.769 62.0685 129.494 61.7705 130.256 61.6223C131.017 61.474 131.801 61.4786 132.561 61.6355C134.108 61.9486 135.439 62.8472 136.31 64.1623C136.74 64.8082 137.038 65.533 137.186 66.2946C137.334 67.0562 137.33 67.8396 137.173 68.5996Z" fill="white"/>
</svg>
