<svg width="119" height="181" viewBox="0 0 119 181" fill="none" xmlns="http://www.w3.org/2000/svg">
<path d="M116.526 79.6074H110.589H107.62H101.683C101.289 79.6074 100.912 79.7638 100.633 80.0422C100.355 80.3205 100.199 80.6981 100.199 81.0917V122.652C100.199 123.045 100.355 123.423 100.633 123.701C100.912 123.98 101.289 124.136 101.683 124.136H107.62V135.91H110.589V124.136H116.526C116.919 124.136 117.297 123.98 117.575 123.701C117.854 123.423 118.01 123.045 118.01 122.652V81.0917C118.01 80.6981 117.854 80.3205 117.575 80.0422C117.297 79.7638 116.919 79.6074 116.526 79.6074Z" fill="url(#paint0_linear_29_45)"/>
<path d="M41.9894 37.5749H36.0523V30.1534H33.0837V37.5749H27.1465C26.7529 37.5749 26.3754 37.7313 26.097 38.0096C25.8186 38.288 25.6623 38.6655 25.6623 39.0592V80.6192C25.6623 81.0129 25.8186 81.3904 26.097 81.6688C26.3754 81.9471 26.7529 82.1035 27.1465 82.1035H33.0837V89.5249H36.0523V82.1035H41.9894C42.3831 82.1035 42.7606 81.9471 43.039 81.6688C43.3173 81.3904 43.4737 81.0129 43.4737 80.6192V39.0592C43.4737 38.6655 43.3173 38.288 43.039 38.0096C42.7606 37.7313 42.3831 37.5749 41.9894 37.5749Z" fill="url(#paint1_linear_29_45)"/>
<path d="M66.8941 79.7353H60.9569V72.3139H57.9883V79.7353H52.0512C51.6575 79.7353 51.28 79.8917 51.0016 80.1701C50.7233 80.4484 50.5669 80.826 50.5669 81.2196V122.78C50.5669 123.173 50.7233 123.551 51.0016 123.829C51.28 124.108 51.6575 124.264 52.0512 124.264H57.9883V138.934H60.9569V124.264H66.8941C67.2877 124.264 67.6652 124.108 67.9436 123.829C68.222 123.551 68.3783 123.173 68.3783 122.78V81.2196C68.3783 80.826 68.222 80.4484 67.9436 80.1701C67.6652 79.8917 67.2877 79.7353 66.8941 79.7353Z" fill="url(#paint2_linear_29_45)"/>
<path d="M91.7788 124.97H85.849H82.8842H76.9544C76.5613 124.97 76.1842 125.007 75.9062 125.073C75.6282 125.139 75.472 125.229 75.472 125.322V135.188C75.472 135.282 75.6282 135.371 75.9062 135.438C76.1842 135.504 76.5613 135.541 76.9544 135.541H82.8842V180.028H85.849V135.541H91.7788C92.1719 135.541 92.549 135.504 92.827 135.438C93.105 135.371 93.2612 135.282 93.2612 135.188V125.322C93.2612 125.229 93.105 125.139 92.827 125.073C92.549 125.007 92.1719 124.97 91.7788 124.97Z" fill="#2386C9"/>
<path d="M17.242 6.011H11.3122V0.623413H8.34735V6.011H2.41761C2.02445 6.011 1.64738 6.12453 1.36937 6.3266C1.09136 6.52867 0.935181 6.80274 0.935181 7.08852V37.259C0.935181 37.5448 1.09136 37.8189 1.36937 38.0209C1.64738 38.223 2.02445 38.3365 2.41761 38.3365H8.34735H11.3122H17.242C17.6351 38.3365 18.0122 38.223 18.2902 38.0209C18.5682 37.8189 18.7244 37.5448 18.7244 37.259V7.08852C18.7244 6.80274 18.5682 6.52867 18.2902 6.3266C18.0122 6.12453 17.6351 6.011 17.242 6.011Z" fill="url(#paint3_linear_29_45)"/>
<defs>
<linearGradient id="paint0_linear_29_45" x1="109.104" y1="131.557" x2="109.104" y2="72.186" gradientUnits="userSpaceOnUse">
<stop stop-color="#009E77"/>
<stop offset="1" stop-color="#00D291"/>
</linearGradient>
<linearGradient id="paint1_linear_29_45" x1="34.568" y1="30.1534" x2="34.568" y2="89.5249" gradientUnits="userSpaceOnUse">
<stop stop-color="#FF4D6C"/>
<stop offset="1" stop-color="#FF0825"/>
</linearGradient>
<linearGradient id="paint2_linear_29_45" x1="59.4726" y1="72.3139" x2="59.4726" y2="131.685" gradientUnits="userSpaceOnUse">
<stop stop-color="#FF4D6C"/>
<stop offset="1" stop-color="#FF0825"/>
</linearGradient>
<linearGradient id="paint3_linear_29_45" x1="9.82978" y1="0.623413" x2="9.82978" y2="43.7241" gradientUnits="userSpaceOnUse">
<stop stop-color="#FF4D6C"/>
<stop offset="1" stop-color="#FF0825"/>
</linearGradient>
</defs>
</svg>
