<svg width="172" height="150" viewBox="0 0 172 150" fill="none" xmlns="http://www.w3.org/2000/svg">
<path fill-rule="evenodd" clip-rule="evenodd" d="M74.6304 149.261C70.6718 149.261 66.8753 147.688 64.0761 144.889C61.2769 142.09 59.7043 138.293 59.7043 134.335V14.9261C59.7043 10.9674 61.2769 7.17093 64.0761 4.37175C66.8753 1.57256 70.6718 0 74.6304 0H156.724C160.683 0 164.479 1.57256 167.278 4.37175C170.077 7.17093 171.65 10.9674 171.65 14.9261V134.335C171.65 138.293 170.077 142.09 167.278 144.889C164.479 147.688 160.683 149.261 156.724 149.261H74.6304ZM70.8989 134.335C70.8989 135.324 71.292 136.274 71.9918 136.973C72.6916 137.673 73.6408 138.066 74.6304 138.066H156.724C157.714 138.066 158.663 137.673 159.362 136.973C160.062 136.274 160.455 135.324 160.455 134.335V14.9261C160.455 13.9364 160.062 12.9873 159.362 12.2875C158.663 11.5877 157.714 11.1946 156.724 11.1946H74.6304C73.6408 11.1946 72.6916 11.5877 71.9918 12.2875C71.292 12.9873 70.8989 13.9364 70.8989 14.9261V134.335ZM46.047 16.1575C46.7105 17.4847 46.8199 19.0211 46.3511 20.429C45.8823 21.8368 44.8736 23.0009 43.5469 23.6653C41.8453 24.5161 41.3453 24.9863 41.196 25.1654C41.1666 25.1997 41.1461 25.2407 41.1363 25.2848C41.0658 25.5576 41.0357 25.8392 41.0467 26.1207V123.14C41.0467 123.663 41.1064 123.901 41.1363 123.976C41.1512 124.036 41.1587 124.051 41.196 124.095C41.3453 124.275 41.8453 124.745 43.5469 125.596C44.2103 125.92 44.8029 126.373 45.2905 126.928C45.7781 127.483 46.151 128.129 46.3877 128.829C46.6245 129.529 46.7204 130.268 46.6699 131.005C46.6194 131.742 46.4235 132.462 46.0935 133.123C45.7636 133.784 45.306 134.373 44.7473 134.856C44.1886 135.339 43.5398 135.707 42.8382 135.939C42.1366 136.17 41.3962 136.26 40.6597 136.204C39.9231 136.148 39.2049 135.946 38.5466 135.611C36.5167 134.596 34.2181 133.26 32.5016 131.148C30.5985 128.805 29.8522 126.073 29.8522 123.14V26.1207C29.8522 23.1877 30.5985 20.4562 32.5016 18.1128C34.2181 16.0008 36.5167 14.6649 38.5466 13.6499C39.8748 12.9869 41.4119 12.8786 42.8198 13.3488C44.2278 13.8191 45.3839 14.8294 46.047 16.1575ZM16.0455 27.0461C16.4138 27.6826 16.653 28.3854 16.7495 29.1143C16.8461 29.8433 16.798 30.5842 16.6081 31.2946C16.4182 32.005 16.0902 32.671 15.6428 33.2546C15.1954 33.8381 14.6374 34.3278 14.0007 34.6957C12.8812 35.345 12.0827 35.9644 11.6125 36.5241C11.1946 37.0167 11.1946 37.2406 11.1946 37.3152V111.946C11.1946 112.02 11.1946 112.244 11.6125 112.737C12.0827 113.289 12.8812 113.916 14.0007 114.565C14.6367 114.934 15.194 115.424 15.6406 116.008C16.0872 116.592 16.4145 117.258 16.6037 117.968C16.7929 118.678 16.8403 119.419 16.7432 120.148C16.6462 120.876 16.4066 121.579 16.0381 122.215C15.6696 122.851 15.1794 123.408 14.5955 123.855C14.0117 124.301 13.3456 124.629 12.6352 124.818C11.9249 125.007 11.1843 125.054 10.4556 124.957C9.72693 124.86 9.02452 124.621 8.38846 124.252C5.44802 122.551 0 118.715 0 111.946V37.3152C0 30.5462 5.44802 26.7177 8.38846 25.0012C9.02495 24.6329 9.72776 24.3937 10.4567 24.2972C11.1857 24.2007 11.9266 24.2487 12.637 24.4386C13.3474 24.6285 14.0134 24.9566 14.597 25.404C15.1805 25.8513 15.6702 26.4093 16.0381 27.0461H16.0455Z" fill="white"/>
</svg>
