<svg width="129" height="129" viewBox="0 0 129 129" fill="none" xmlns="http://www.w3.org/2000/svg">
<path d="M64.5 0C51.7431 0 39.2727 3.78286 28.6657 10.8702C18.0588 17.9576 9.79165 28.0311 4.9098 39.8169C0.0279467 51.6027 -1.24937 64.5715 1.23938 77.0833C3.72812 89.5951 9.87115 101.088 18.8916 110.108C27.9121 119.129 39.4049 125.272 51.9167 127.761C64.4285 130.249 77.3973 128.972 89.1831 124.09C100.969 119.208 111.042 110.941 118.13 100.334C125.217 89.7273 129 77.2569 129 64.5C128.981 47.3993 122.18 31.0044 110.088 18.9123C97.9956 6.82033 81.6007 0.0187798 64.5 0ZM64.5 123.84C52.7637 123.84 41.2909 120.36 31.5325 113.839C21.7741 107.319 14.1683 98.0514 9.67702 87.2084C5.18571 76.3655 4.01058 64.4342 6.30023 52.9233C8.58988 41.4125 14.2415 30.8391 22.5403 22.5403C30.8392 14.2414 41.4125 8.58985 52.9234 6.3002C64.4342 4.01055 76.3655 5.18568 87.2085 9.67699C98.0514 14.1683 107.319 21.774 113.839 31.5325C120.36 41.2909 123.84 52.7636 123.84 64.5C123.823 80.2327 117.566 95.3161 106.441 106.441C95.3162 117.566 80.2327 123.823 64.5 123.84Z" fill="white"/>
<path d="M62.6746 80.0123C62.9142 80.2521 63.1988 80.4424 63.512 80.5723C63.8252 80.7021 64.1609 80.7689 64.5 80.7689C64.839 80.7689 65.1747 80.7021 65.4879 80.5723C65.8011 80.4424 66.0857 80.2521 66.3253 80.0123L83.2695 63.0617C83.5193 62.8247 83.7192 62.5401 83.8574 62.2246C83.9955 61.9092 84.0691 61.5693 84.0738 61.225C84.0785 60.8806 84.0142 60.5388 83.8848 60.2197C83.7553 59.9006 83.5633 59.6107 83.32 59.367C83.0767 59.1232 82.7871 58.9307 82.4682 58.8007C82.1493 58.6706 81.8077 58.6058 81.4633 58.6099C81.119 58.614 80.7789 58.687 80.4633 58.8245C80.1476 58.9621 79.8626 59.1615 79.6252 59.411L67.08 71.9562V35.475C67.08 34.7908 66.8081 34.1345 66.3243 33.6507C65.8405 33.1668 65.1842 32.895 64.5 32.895C63.8157 32.895 63.1595 33.1668 62.6756 33.6507C62.1918 34.1345 61.92 34.7908 61.92 35.475V71.9562L49.3747 59.411C48.8906 58.9269 48.234 58.6549 47.5494 58.6549C46.8647 58.6549 46.2081 58.9269 45.724 59.411C45.2399 59.8951 44.9679 60.5517 44.9679 61.2363C44.9679 61.921 45.2399 62.5775 45.724 63.0617L62.6746 80.0123Z" fill="white"/>
<path d="M93.3702 78.3674C92.686 78.3674 92.0298 78.6393 91.5459 79.1231C91.0621 79.6069 90.7902 80.2632 90.7902 80.9474V86.288C90.7885 87.5226 90.2974 88.7061 89.4244 89.5791C88.5514 90.452 87.3679 90.9432 86.1333 90.9449H42.8668C41.6322 90.9432 40.4487 90.452 39.5757 89.5791C38.7028 88.7061 38.2116 87.5226 38.2099 86.288V80.9474C38.2099 80.2632 37.938 79.6069 37.4542 79.1231C36.9704 78.6393 36.3141 78.3674 35.6299 78.3674C34.9456 78.3674 34.2894 78.6393 33.8055 79.1231C33.3217 79.6069 33.0499 80.2632 33.0499 80.9474V86.288C33.0533 88.8906 34.0887 91.3856 35.9289 93.2259C37.7692 95.0661 40.2642 96.1015 42.8668 96.1049H86.1333C88.7359 96.1015 91.2309 95.0661 93.0712 93.2259C94.9115 91.3856 95.9468 88.8906 95.9502 86.288V80.9474C95.9502 80.2632 95.6784 79.6069 95.1946 79.1231C94.7107 78.6393 94.0545 78.3674 93.3702 78.3674Z" fill="white"/>
</svg>
