<svg width="273" height="70" viewBox="0 0 273 70" fill="none" xmlns="http://www.w3.org/2000/svg">
<path d="M17.5303 16.4492V20.0756H3.86771V31.564H15.5211V35.1904H3.86771V49.3188H0V16.4492H17.5303Z" fill="black"/>
<path d="M48.8738 32.8692C48.8738 35.3352 48.5473 37.598 47.8692 39.6288C47.1911 41.6886 46.2367 43.4583 45.0061 44.9378C43.7754 46.4174 42.2936 47.5778 40.5607 48.3902C38.8278 49.2025 36.919 49.6086 34.8345 49.6086C32.7499 49.6086 30.8412 49.2025 29.1083 48.3902C27.4004 47.5778 25.9187 46.4174 24.688 44.9378C23.4574 43.4583 22.503 41.6886 21.8249 39.6288C21.1468 37.569 20.8203 35.3061 20.8203 32.8692C20.8203 30.4033 21.1468 28.1404 21.8249 26.1096C22.503 24.0788 23.4574 22.2802 24.688 20.8006C25.9187 19.321 27.4004 18.1606 29.1083 17.3193C30.8161 16.5069 32.7248 16.0718 34.8345 16.0718C36.919 16.0718 38.8278 16.4779 40.5607 17.3193C42.2936 18.1606 43.7754 19.292 45.0061 20.8006C46.2367 22.2802 47.1911 24.0498 47.8692 26.1096C48.5473 28.1694 48.8738 30.4033 48.8738 32.8692ZM44.9056 32.8692C44.9056 30.8384 44.6796 29.0397 44.2024 27.4441C43.7252 25.8485 43.0471 24.485 42.1681 23.3826C41.289 22.2802 40.2342 21.4098 39.0036 20.8296C37.7478 20.2204 36.3665 19.9303 34.8345 19.9303C33.3025 19.9303 31.9211 20.2204 30.6905 20.8296C29.4348 21.4388 28.3799 22.2802 27.5009 23.3826C26.6219 24.485 25.9438 25.8485 25.4666 27.4441C24.9894 29.0397 24.7634 30.8674 24.7634 32.8692C24.7634 34.871 24.9894 36.6987 25.4666 38.2943C25.9438 39.8899 26.6219 41.2534 27.5009 42.3558C28.3799 43.4583 29.4348 44.2996 30.6905 44.9088C31.9211 45.489 33.3276 45.7792 34.8345 45.7792C36.3665 45.7792 37.7478 45.489 39.0036 44.9088C40.2342 44.3286 41.3141 43.4873 42.1681 42.3558C43.0471 41.2534 43.7252 39.8899 44.2024 38.2943C44.6796 36.6987 44.9056 34.9 44.9056 32.8692Z" fill="black"/>
<path d="M58.3421 35.5675V49.2608H54.5246V16.4492H62.5614C64.3697 16.4492 65.9268 16.6523 67.2328 17.0875C68.5388 17.4936 69.6187 18.1029 70.4726 18.9152C71.3266 19.6985 71.9544 20.6558 72.3563 21.7873C72.7581 22.9187 72.959 24.1662 72.959 25.5587C72.959 26.7192 72.8083 27.7926 72.4818 28.808C72.1554 29.8233 71.7033 30.7227 71.1005 31.535C70.4978 32.3473 69.7694 33.0146 68.8904 33.5948C68.0365 34.146 67.0319 34.5812 65.952 34.8713C66.4291 35.1904 66.8561 35.6546 67.2328 36.2638L75.5208 49.2898H72.1051C71.4019 49.2898 70.8996 48.9707 70.548 48.3614L63.1642 36.641C62.9381 36.2638 62.687 36.0027 62.4359 35.8577C62.1596 35.6836 61.7829 35.6256 61.2554 35.6256H58.3421V35.5675ZM58.3421 32.3473H62.3605C63.4907 32.3473 64.4702 32.2023 65.3241 31.8831C66.178 31.564 66.8812 31.1288 67.4588 30.5486C68.0365 29.9684 68.4634 29.3011 68.7648 28.4888C69.0662 27.7055 69.1918 26.8062 69.1918 25.8488C69.1918 23.9051 68.6393 22.4255 67.5091 21.4391C66.3789 20.4528 64.7213 19.9596 62.5112 19.9596H58.317V32.3473H58.3421Z" fill="black"/>
<path d="M97.1951 16.4492V20.0756H83.5576V30.9838H94.6082V34.4651H83.5576V45.6634H97.1951V49.2898H79.6648V16.4492H97.1951Z" fill="black"/>
<path d="M155.587 21.5843C155.462 21.8164 155.336 21.9904 155.211 22.1065C155.085 22.2225 154.909 22.2806 154.683 22.2806C154.457 22.2806 154.206 22.1645 153.905 21.9034C153.603 21.6423 153.227 21.3522 152.775 21.0331C152.323 20.714 151.77 20.4238 151.117 20.1627C150.464 19.9016 149.711 19.7856 148.781 19.7856C147.927 19.7856 147.149 19.9307 146.496 20.1918C145.843 20.4529 145.29 20.83 144.838 21.2942C144.386 21.7584 144.06 22.2806 143.834 22.9188C143.608 23.528 143.507 24.1953 143.507 24.9206C143.507 25.8489 143.708 26.6032 144.085 27.2125C144.487 27.8217 144.989 28.3439 145.642 28.75C146.295 29.1852 147.023 29.5624 147.827 29.8525C148.631 30.1716 149.485 30.4907 150.338 30.8388C151.192 31.187 152.021 31.5641 152.85 31.9703C153.654 32.3764 154.382 32.9276 155.035 33.5659C155.688 34.2041 156.19 34.9874 156.592 35.9158C156.994 36.8441 157.17 38.0046 157.17 39.3391C157.17 40.7897 156.969 42.1242 156.542 43.3716C156.115 44.6191 155.512 45.7215 154.683 46.6499C153.88 47.5783 152.875 48.3035 151.695 48.8547C150.514 49.3769 149.158 49.6671 147.651 49.6671C145.818 49.6671 144.135 49.2899 142.628 48.5066C141.121 47.7233 139.815 46.6789 138.76 45.3734L139.866 43.2556C139.966 43.0815 140.092 42.9365 140.242 42.8204C140.393 42.7044 140.569 42.6464 140.745 42.6464C141.021 42.6464 141.347 42.8204 141.699 43.1686C142.051 43.5167 142.503 43.8938 143.03 44.3C143.557 44.7062 144.21 45.0833 144.964 45.4314C145.717 45.7796 146.647 45.9536 147.752 45.9536C148.656 45.9536 149.485 45.8086 150.188 45.5185C150.891 45.2284 151.519 44.8222 151.996 44.3C152.498 43.7778 152.875 43.1396 153.126 42.4143C153.402 41.689 153.528 40.8767 153.528 39.9483C153.528 38.962 153.327 38.1496 152.95 37.5114C152.549 36.8732 152.046 36.351 151.418 35.9158C150.791 35.4806 150.062 35.1325 149.259 34.8134C148.455 34.5233 147.601 34.2041 146.747 33.885C145.893 33.5659 145.064 33.2178 144.236 32.7826C143.432 32.3764 142.703 31.8252 142.05 31.187C141.423 30.5197 140.895 29.7074 140.518 28.721C140.117 27.7347 139.941 26.5162 139.941 25.0656C139.941 23.9052 140.142 22.7738 140.518 21.7003C140.92 20.6269 141.473 19.6406 142.226 18.7992C142.955 17.9579 143.884 17.2906 144.964 16.7684C146.044 16.2753 147.3 16.0142 148.731 16.0142C150.313 16.0142 151.77 16.3043 153.076 16.8845C154.382 17.4647 155.537 18.306 156.517 19.4085L155.587 21.5843Z" fill="black"/>
<path d="M164.805 16.5943C164.981 16.6813 165.156 16.8844 165.382 17.2035L181.858 41.95C181.808 41.5438 181.782 41.1667 181.782 40.7895C181.757 40.4124 181.757 40.0643 181.757 39.6871V16.4492H185.098V49.2898H183.164C182.862 49.2898 182.611 49.2318 182.41 49.1157C182.209 48.9997 182.008 48.7966 181.808 48.5065L165.357 23.789C165.382 24.1662 165.407 24.5433 165.407 24.9205C165.433 25.2976 165.433 25.6167 165.433 25.9359V49.3478H162.067V16.4492H164.051C164.378 16.4492 164.629 16.5072 164.805 16.5943Z" fill="black"/>
<path d="M196.6 49.2898H192.758V16.4492H196.6V49.2898Z" fill="black"/>
<path d="M208.454 36.9891V49.2608H204.637V16.4492H213.025C214.834 16.4492 216.391 16.6813 217.722 17.1745C219.053 17.6677 220.158 18.3349 221.037 19.2343C221.916 20.1336 222.569 21.178 222.996 22.4545C223.423 23.702 223.649 25.0945 223.649 26.6611C223.649 28.1987 223.423 29.5913 222.946 30.8677C222.494 32.1442 221.816 33.2176 220.911 34.146C220.007 35.0744 218.902 35.7706 217.596 36.2928C216.265 36.815 214.758 37.0471 213.05 37.0471H208.454V36.9891ZM208.454 33.4787H213.025C214.13 33.4787 215.085 33.3047 215.939 32.9856C216.768 32.6374 217.471 32.1732 218.048 31.564C218.626 30.9548 219.053 30.2295 219.329 29.3882C219.606 28.5469 219.756 27.6185 219.756 26.6031C219.756 24.5143 219.204 22.8897 218.073 21.7002C216.943 20.5108 215.261 19.9306 213 19.9306H208.454V33.4787Z" fill="black"/>
<path d="M246.001 16.4492V20.0756H232.364V30.9838H243.415V34.4651H232.364V45.6634H246.001V49.2898H228.471V16.4492H246.001Z" fill="black"/>
<path d="M255.746 35.5675V49.2608H251.929V16.4492H259.965C261.774 16.4492 263.331 16.6523 264.637 17.0875C265.943 17.4936 267.023 18.1029 267.877 18.9152C268.731 19.6985 269.358 20.6558 269.76 21.7873C270.162 22.9187 270.363 24.1662 270.363 25.5587C270.363 26.7192 270.212 27.7926 269.886 28.808C269.559 29.8233 269.107 30.7227 268.505 31.535C267.902 32.3473 267.173 33.0146 266.294 33.5948C265.415 34.146 264.436 34.5812 263.356 34.8713C263.833 35.1904 264.26 35.6546 264.637 36.2638L272.925 49.2898H269.509C268.806 49.2898 268.304 48.9707 267.952 48.3614L260.568 36.641C260.342 36.2638 260.091 36.0027 259.84 35.8577C259.564 35.6836 259.187 35.6256 258.659 35.6256H255.746V35.5675ZM255.746 32.3473H259.765C260.895 32.3473 261.874 32.2023 262.728 31.8831C263.582 31.564 264.285 31.1288 264.863 30.5486C265.44 29.9684 265.867 29.3011 266.169 28.4888C266.47 27.7055 266.596 26.8062 266.596 25.8488C266.596 23.9051 266.043 22.4255 264.913 21.4391C263.783 20.4528 262.125 19.9596 259.915 19.9596H255.721V32.3473H255.746Z" fill="black"/>
<path d="M4.42024 66.4352C4.42024 66.2031 4.37001 66 4.26955 65.826C4.16909 65.6809 4.0184 65.5359 3.8426 65.4488C3.66679 65.3618 3.46587 65.2748 3.23984 65.2167C3.0138 65.1587 2.78777 65.1007 2.53662 65.0427C2.21012 64.9556 1.90874 64.8686 1.60736 64.7526C1.30598 64.6365 1.05483 64.4915 0.828798 64.2884C0.602763 64.0853 0.426958 63.8242 0.301383 63.5341C0.175808 63.215 0.100463 62.8378 0.100463 62.3736C0.100463 61.8514 0.175808 61.4163 0.326498 61.0391C0.477188 60.662 0.678108 60.3429 0.954373 60.1108C1.23064 59.8497 1.53202 59.6756 1.88363 59.5596C2.23524 59.4435 2.63708 59.3855 3.08915 59.3855C3.54122 59.3855 3.99329 59.4435 4.44536 59.5306C4.89743 59.6176 5.27415 59.7626 5.60065 59.9077V61.4163C5.17369 61.2132 4.74674 61.0681 4.3449 60.9811C3.94306 60.8941 3.56633 60.8361 3.21472 60.8361C2.71242 60.8361 2.31058 60.9521 2.05943 61.1552C1.78317 61.3583 1.65759 61.6774 1.65759 62.1125C1.65759 62.3446 1.70782 62.5477 1.78317 62.7218C1.88363 62.8668 1.98409 63.0119 2.15989 63.1279C2.31058 63.244 2.48639 63.302 2.68731 63.389C2.88823 63.4761 3.08915 63.5051 3.31518 63.5631C3.66679 63.6501 4.0184 63.7372 4.31978 63.8532C4.64628 63.9693 4.92254 64.1143 5.17369 64.3174C5.42484 64.5205 5.62576 64.7816 5.77645 65.1007C5.92714 65.4198 6.00249 65.855 6.00249 66.3482C6.00249 66.8704 5.92714 67.3055 5.75134 67.7117C5.57553 68.0888 5.3495 68.408 5.04812 68.64C4.74674 68.9011 4.37001 69.0752 3.94306 69.1913C3.5161 69.3073 3.0138 69.3653 2.5115 69.3653C2.05943 69.3653 1.60736 69.3073 1.18041 69.2203C0.728338 69.1042 0.376728 68.9592 0.0753479 68.7851V67.3055C0.477188 67.5086 0.879028 67.6537 1.28087 67.7697C1.68271 67.8567 2.08455 67.9148 2.48639 67.9148C2.73754 67.9148 2.96357 67.8858 3.18961 67.8567C3.41564 67.7987 3.64168 67.7407 3.81748 67.6247C3.99329 67.5086 4.14398 67.3636 4.26955 67.1605C4.37001 66.9574 4.42024 66.7253 4.42024 66.4352Z" fill="#2386C9"/>
<path d="M18.0577 69.3943C17.6307 69.3943 17.2289 69.3363 16.8772 69.2493C16.5256 69.1622 16.2243 69.0172 15.948 68.8141C15.6717 68.64 15.4457 68.408 15.2699 68.1469C15.0941 67.8858 14.9434 67.5666 14.8178 67.2475C14.7174 66.9864 14.6671 66.6673 14.6169 66.3482C14.5667 66.029 14.5667 65.6519 14.5667 65.2457V59.5596H16.0987V65.1007C16.0987 65.797 16.174 66.3192 16.2996 66.6963C16.4503 67.1315 16.7014 67.4216 17.0028 67.6247C17.3042 67.8277 17.6558 67.9148 18.0828 67.9148C18.5097 67.9148 18.8613 67.8277 19.1627 67.6247C19.4641 67.4216 19.6901 67.1315 19.8659 66.6963C20.0166 66.3192 20.0669 65.7679 20.0669 65.1007V59.5596H21.5989V65.2457C21.5989 65.6519 21.5738 66.029 21.5486 66.3482C21.5235 66.6673 21.4482 66.9864 21.3477 67.2475C21.2473 67.5956 21.0714 67.8858 20.8956 68.1469C20.6947 68.408 20.4687 68.64 20.1924 68.8141C19.9162 68.9882 19.6148 69.1332 19.2632 69.2493C18.8864 69.3363 18.5097 69.3943 18.0577 69.3943Z" fill="#2386C9"/>
<path d="M32.7751 65.4778C32.6495 65.4778 32.4988 65.4778 32.3732 65.4778C32.2477 65.4778 32.1221 65.4488 31.9965 65.4488V69.2203H30.4645V59.5596H32.8755C33.2774 59.5596 33.629 59.5886 33.9304 59.6176C34.2317 59.6466 34.508 59.7336 34.734 59.7917C35.3117 59.9947 35.7386 60.3139 36.0651 60.749C36.3665 61.1842 36.5172 61.7644 36.5172 62.4317C36.5172 62.8958 36.4419 63.331 36.2661 63.6791C36.0903 64.0563 35.8642 64.3754 35.5377 64.6365C35.2112 64.8976 34.8345 65.1007 34.3573 65.2457C33.8801 65.3908 33.3778 65.4778 32.7751 65.4778ZM31.9965 63.9402C32.0719 63.9693 32.1974 63.9693 32.323 63.9693C32.4486 63.9693 32.5993 63.9693 32.75 63.9693C33.1518 63.9693 33.5034 63.9402 33.7797 63.8532C34.0559 63.7662 34.282 63.6791 34.4578 63.5341C34.6336 63.389 34.7592 63.244 34.8345 63.0409C34.9098 62.8378 34.935 62.6347 34.935 62.4027C34.935 62.1125 34.8847 61.8805 34.7592 61.6774C34.6336 61.4743 34.4578 61.3002 34.1815 61.1842C34.0308 61.1262 33.855 61.0972 33.629 61.0681C33.4029 61.0391 33.1518 61.0391 32.8504 61.0391H31.9965V63.9402Z" fill="#2386C9"/>
<path d="M47.3418 65.4778C47.2163 65.4778 47.0656 65.4778 46.94 65.4778C46.8144 65.4778 46.6888 65.4488 46.5633 65.4488V69.2203H45.0312V59.5596H47.4423C47.8441 59.5596 48.1957 59.5886 48.4971 59.6176C48.7985 59.6466 49.0748 59.7336 49.3008 59.7917C49.8784 59.9947 50.3054 60.3139 50.6319 60.749C50.9333 61.1842 51.084 61.7644 51.084 62.4317C51.084 62.8958 51.0086 63.331 50.8328 63.6791C50.657 64.0563 50.431 64.3754 50.1045 64.6365C49.778 64.8976 49.4013 65.1007 48.9241 65.2457C48.4469 65.3908 47.9446 65.4778 47.3418 65.4778ZM46.5633 63.9402C46.6386 63.9693 46.7642 63.9693 46.8898 63.9693C47.0153 63.9693 47.166 63.9693 47.3167 63.9693C47.7186 63.9693 48.0702 63.9402 48.3464 63.8532C48.6227 63.7662 48.8487 63.6791 49.0245 63.5341C49.2003 63.389 49.3259 63.244 49.4013 63.0409C49.4766 62.8378 49.5017 62.6347 49.5017 62.4027C49.5017 62.1125 49.4515 61.8805 49.3259 61.6774C49.2003 61.4743 49.0245 61.3002 48.7483 61.1842C48.5976 61.1262 48.4218 61.0972 48.1957 61.0681C47.9697 61.0391 47.7186 61.0391 47.4172 61.0391H46.5633V63.9402Z" fill="#2386C9"/>
<path d="M67.4086 64.3756C67.4086 65.1008 67.3082 65.7971 67.1323 66.4063C66.9565 67.0156 66.6803 67.5378 66.3287 68.002C65.9771 68.4371 65.5501 68.7853 65.0478 69.0464C64.5455 69.2784 63.9679 69.4235 63.3149 69.4235C62.6619 69.4235 62.0842 69.3075 61.5819 69.0464C61.0796 68.8143 60.6527 68.4661 60.3011 68.002C59.9495 67.5668 59.6983 67.0446 59.4974 66.4063C59.3216 65.7971 59.2211 65.1299 59.2211 64.3756C59.2211 63.6503 59.3216 62.954 59.4974 62.3448C59.6732 61.7356 59.9495 61.2134 60.3011 60.7492C60.6527 60.314 61.0796 59.9659 61.5819 59.7048C62.0842 59.4727 62.6619 59.3276 63.3149 59.3276C63.9679 59.3276 64.5455 59.4437 65.0478 59.7048C65.5501 59.9369 65.9771 60.285 66.3287 60.7492C66.6803 61.1843 66.9314 61.7065 67.1323 62.3448C67.3082 62.954 67.4086 63.6503 67.4086 64.3756ZM65.8264 64.3756C65.8264 63.7953 65.7761 63.2732 65.6506 62.838C65.525 62.4028 65.3492 62.0257 65.1232 61.7356C64.8971 61.4454 64.646 61.2134 64.3446 61.0683C64.0432 60.9232 63.7167 60.8652 63.34 60.8652C62.9633 60.8652 62.6368 60.9232 62.3354 61.0683C62.034 61.2134 61.7577 61.4454 61.5568 61.7356C61.3308 62.0257 61.155 62.4028 61.0294 62.838C60.9038 63.2732 60.8536 63.7953 60.8536 64.3756C60.8536 64.9558 60.9038 65.478 61.0294 65.9132C61.155 66.3483 61.3308 66.7255 61.5568 67.0156C61.7829 67.3057 62.034 67.5378 62.3354 67.6828C62.6368 67.8279 62.9633 67.9149 63.34 67.9149C63.7167 67.9149 64.0432 67.8279 64.3446 67.6828C64.646 67.5378 64.9222 67.3057 65.1232 67.0156C65.3492 66.7255 65.525 66.3483 65.6506 65.9132C65.751 65.478 65.8264 64.9558 65.8264 64.3756Z" fill="#2386C9"/>
<path d="M82.1009 62.4607C82.1009 63.1279 81.9502 63.7082 81.6237 64.1723C81.2972 64.6365 80.7949 64.9846 80.1168 65.2167V65.2457L82.6032 69.2203H80.7698L78.4843 65.4778H77.4295V69.2203H75.8975V59.5596H78.4341C78.861 59.5596 79.2378 59.5886 79.6145 59.6466C79.9661 59.7046 80.2926 59.7917 80.5437 59.9077C81.046 60.1108 81.4228 60.4589 81.6739 60.8651C81.9753 61.2712 82.1009 61.7934 82.1009 62.4607ZM78.208 63.9983C78.5596 63.9983 78.861 63.9693 79.0871 63.9402C79.3382 63.9112 79.5391 63.8532 79.7149 63.7662C80.0163 63.6211 80.2424 63.4471 80.3679 63.215C80.4935 62.9829 80.5437 62.7218 80.5437 62.4027C80.5437 62.1416 80.4935 61.9095 80.393 61.7064C80.2926 61.5033 80.1419 61.3583 79.9159 61.2422C79.7652 61.1552 79.5894 61.0972 79.3633 61.0681C79.1373 61.0391 78.861 61.0101 78.5345 61.0101H77.4295V63.9693H78.208V63.9983Z" fill="#2386C9"/>
<path d="M94.2817 69.2203H92.7497V61.0391H90.0373V59.5596H96.969V61.0391H94.2817V69.2203Z" fill="#2386C9"/>
<path d="M121.506 64.0564C121.456 64.7237 121.331 65.3039 121.155 65.8551C120.979 66.4063 120.753 66.8705 120.477 67.2766C120.678 67.5377 120.879 67.7698 121.079 68.0019C121.28 68.234 121.431 68.4371 121.582 68.6112C121.732 68.7852 121.858 68.9303 121.933 69.0463C122.034 69.1624 122.084 69.2204 122.109 69.2494H119.999C119.924 69.1334 119.849 69.0463 119.773 68.9303C119.698 68.8142 119.573 68.6692 119.422 68.4951C119.02 68.8142 118.593 69.0463 118.116 69.2204C117.639 69.3945 117.187 69.4525 116.709 69.4525C116.333 69.4525 115.981 69.3945 115.655 69.2784C115.328 69.1624 115.077 68.9883 114.851 68.7562C114.625 68.5241 114.449 68.263 114.324 67.9439C114.198 67.6248 114.148 67.2766 114.148 66.8705C114.148 66.5514 114.198 66.2322 114.273 65.9711C114.374 65.71 114.474 65.4489 114.625 65.2459C114.776 65.0428 114.951 64.8397 115.152 64.6656C115.353 64.4916 115.554 64.3175 115.755 64.1725C115.604 63.9984 115.454 63.8243 115.303 63.6503C115.177 63.4762 115.052 63.2731 114.951 63.099C114.851 62.925 114.776 62.6929 114.725 62.4898C114.675 62.2867 114.65 62.0546 114.65 61.7935C114.65 61.4164 114.7 61.0973 114.826 60.8072C114.951 60.5171 115.102 60.285 115.303 60.0819C115.504 59.8788 115.78 59.7338 116.082 59.6177C116.383 59.5017 116.735 59.4727 117.111 59.4727C117.488 59.4727 117.84 59.5307 118.166 59.6177C118.467 59.7047 118.744 59.8498 118.945 60.0529C119.171 60.256 119.321 60.488 119.447 60.7491C119.573 61.0393 119.623 61.3584 119.623 61.7355C119.623 62.0546 119.573 62.3448 119.497 62.6349C119.422 62.925 119.296 63.1281 119.146 63.3601C118.995 63.5632 118.819 63.7663 118.618 63.9404C118.417 64.1144 118.216 64.2885 118.015 64.4336C118.216 64.6656 118.442 64.9558 118.719 65.2749C118.995 65.594 119.246 65.9131 119.547 66.2613C119.673 65.9711 119.799 65.681 119.899 65.3329C119.999 64.9848 120.05 64.6076 120.075 64.2015H121.506V64.0564ZM116.86 68.0019C117.136 68.0019 117.438 67.9439 117.714 67.8569C118.015 67.7698 118.292 67.5958 118.543 67.3927C118.392 67.2186 118.216 67.0155 118.066 66.8125C117.915 66.6094 117.739 66.4353 117.588 66.2322C117.438 66.0582 117.287 65.8551 117.111 65.681C116.961 65.507 116.81 65.3329 116.684 65.1878C116.534 65.3039 116.408 65.3909 116.282 65.507C116.157 65.623 116.056 65.7391 115.956 65.8841C115.856 66.0002 115.805 66.1452 115.755 66.2903C115.705 66.4353 115.68 66.6094 115.68 66.7835C115.68 66.9865 115.705 67.1606 115.78 67.3057C115.856 67.4507 115.931 67.5668 116.031 67.6828C116.132 67.7698 116.257 67.8569 116.408 67.9149C116.534 67.9729 116.684 68.0019 116.86 68.0019ZM116.182 61.6775C116.182 61.8226 116.207 61.9676 116.232 62.0837C116.282 62.1997 116.333 62.3448 116.408 62.4608C116.483 62.5768 116.584 62.7219 116.684 62.8379C116.785 62.954 116.91 63.099 117.061 63.2441C117.212 63.1281 117.337 63.041 117.463 62.925C117.588 62.8089 117.689 62.6929 117.789 62.5768C117.89 62.4608 117.965 62.3157 118.015 62.1707C118.066 62.0256 118.091 61.8806 118.091 61.7065C118.091 61.4164 118.015 61.2133 117.84 61.0393C117.664 60.8652 117.438 60.7782 117.136 60.7782C116.986 60.7782 116.835 60.8072 116.735 60.8652C116.609 60.9232 116.509 60.9812 116.433 61.0683C116.358 61.1553 116.282 61.2423 116.257 61.3584C116.207 61.4164 116.182 61.5324 116.182 61.6775Z" fill="#555656"/>
<path d="M146.044 62.4607C146.044 63.1279 145.893 63.7082 145.567 64.1723C145.24 64.6365 144.738 64.9846 144.06 65.2167V65.2457L146.546 69.2203H144.713L142.427 65.4778H141.397V69.2203H139.865V59.5596H142.402C142.829 59.5596 143.206 59.5886 143.582 59.6466C143.934 59.7046 144.261 59.7917 144.512 59.9077C145.014 60.1108 145.391 60.4589 145.642 60.8651C145.918 61.2712 146.044 61.7934 146.044 62.4607ZM142.151 63.9983C142.502 63.9983 142.804 63.9693 143.03 63.9402C143.281 63.9112 143.482 63.8532 143.658 63.7662C143.959 63.6211 144.185 63.4471 144.311 63.215C144.436 62.9829 144.487 62.7218 144.487 62.4027C144.487 62.1416 144.436 61.9095 144.336 61.7064C144.235 61.5033 144.085 61.3583 143.859 61.2422C143.708 61.1552 143.532 61.0972 143.306 61.0681C143.08 61.0391 142.804 61.0101 142.477 61.0101H141.397V63.9693H142.151V63.9983Z" fill="#2386C9"/>
<path d="M156.341 67.7407H160.46V69.2203H154.809V59.5596H160.234V61.0391H156.341V63.5341H159.681V65.0137H156.341V67.7407Z" fill="#2386C9"/>
<path d="M173.067 66.4352C173.067 66.2031 173.017 66 172.917 65.826C172.816 65.6809 172.666 65.5359 172.49 65.4488C172.314 65.3618 172.113 65.2748 171.887 65.2167C171.661 65.1587 171.435 65.1007 171.184 65.0427C170.857 64.9556 170.556 64.8686 170.255 64.7526C169.953 64.6365 169.702 64.4915 169.476 64.2884C169.25 64.0853 169.074 63.8242 168.949 63.5341C168.823 63.244 168.748 62.8378 168.748 62.3736C168.748 61.8514 168.823 61.4163 168.974 61.0391C169.124 60.662 169.325 60.3429 169.602 60.1108C169.878 59.8497 170.179 59.6756 170.531 59.5596C170.882 59.4435 171.284 59.3855 171.736 59.3855C172.188 59.3855 172.641 59.4435 173.093 59.5306C173.545 59.6176 173.921 59.7626 174.248 59.9077V61.4163C173.821 61.2132 173.394 61.0681 172.992 60.9811C172.59 60.8941 172.214 60.8361 171.862 60.8361C171.36 60.8361 170.958 60.9521 170.707 61.1552C170.43 61.3583 170.305 61.6774 170.305 62.1125C170.305 62.3446 170.355 62.5477 170.43 62.7218C170.531 62.8668 170.631 63.0119 170.807 63.1279C170.958 63.244 171.134 63.302 171.335 63.389C171.535 63.4761 171.736 63.5051 171.962 63.5631C172.314 63.6501 172.666 63.7372 172.967 63.8532C173.294 63.9693 173.57 64.1143 173.821 64.3174C174.072 64.5205 174.273 64.7816 174.424 65.1007C174.574 65.4198 174.65 65.855 174.65 66.3482C174.65 66.8704 174.574 67.3055 174.399 67.7117C174.223 68.1178 173.997 68.408 173.695 68.64C173.394 68.9011 173.017 69.0752 172.59 69.1913C172.163 69.3073 171.661 69.3653 171.159 69.3653C170.707 69.3653 170.255 69.3073 169.828 69.2203C169.376 69.1042 169.024 68.9592 168.723 68.7851V67.3055C169.124 67.5086 169.526 67.6537 169.928 67.7697C170.33 67.8567 170.732 67.9148 171.134 67.9148C171.385 67.9148 171.611 67.8858 171.837 67.8567C172.063 67.8277 172.289 67.7407 172.465 67.6247C172.641 67.5086 172.791 67.3636 172.917 67.1605C173.017 66.9574 173.067 66.7253 173.067 66.4352Z" fill="#2386C9"/>
<path d="M183.239 69.2203V59.5596H184.771V69.2203H183.239Z" fill="#2386C9"/>
<path d="M197.781 66.4352C197.781 66.2031 197.73 66 197.63 65.826C197.529 65.6809 197.379 65.5359 197.203 65.4488C197.027 65.3618 196.826 65.2748 196.6 65.2167C196.374 65.1587 196.148 65.1007 195.897 65.0427C195.571 64.9556 195.269 64.8686 194.968 64.7526C194.666 64.6365 194.415 64.4915 194.189 64.2884C193.963 64.0853 193.787 63.8242 193.662 63.5341C193.536 63.244 193.461 62.8378 193.461 62.3736C193.461 61.8514 193.536 61.4163 193.687 61.0391C193.838 60.662 194.038 60.3429 194.315 60.1108C194.591 59.8497 194.892 59.6756 195.244 59.5596C195.596 59.4435 195.997 59.3855 196.45 59.3855C196.902 59.3855 197.354 59.4435 197.806 59.5306C198.258 59.6176 198.635 59.7626 198.961 59.9077V61.4163C198.534 61.2132 198.107 61.0681 197.705 60.9811C197.303 60.8941 196.927 60.8361 196.575 60.8361C196.073 60.8361 195.671 60.9521 195.42 61.1552C195.144 61.3583 195.018 61.6774 195.018 62.1125C195.018 62.3446 195.068 62.5477 195.144 62.7218C195.244 62.8668 195.344 63.0119 195.52 63.1279C195.671 63.244 195.847 63.302 196.048 63.389C196.249 63.4761 196.45 63.5051 196.676 63.5631C197.027 63.6501 197.379 63.7372 197.68 63.8532C198.007 63.9693 198.283 64.1143 198.534 64.3174C198.785 64.5205 198.986 64.7816 199.137 65.1007C199.288 65.4198 199.363 65.855 199.363 66.3482C199.363 66.8704 199.288 67.3055 199.112 67.7117C198.936 68.1178 198.71 68.408 198.408 68.64C198.107 68.9011 197.73 69.0752 197.303 69.1913C196.876 69.3073 196.374 69.3653 195.872 69.3653C195.42 69.3653 194.968 69.3073 194.541 69.2203C194.089 69.1042 193.737 68.9592 193.436 68.7851V67.3055C193.838 67.5086 194.239 67.6537 194.641 67.7697C195.043 67.8567 195.445 67.9148 195.847 67.9148C196.098 67.9148 196.324 67.8858 196.55 67.8567C196.776 67.8277 197.002 67.7407 197.178 67.6247C197.354 67.5086 197.504 67.3636 197.63 67.1605C197.73 66.9574 197.781 66.7253 197.781 66.4352Z" fill="#2386C9"/>
<path d="M211.368 69.2203H209.836V61.0391H207.123V59.5596H214.055V61.0391H211.368V69.2203Z" fill="#2386C9"/>
<path d="M226.261 66.7543H223.122L222.293 69.2203H220.66L223.975 59.5596H225.382L228.697 69.2203H227.09L226.261 66.7543ZM224.654 61.8805C224.352 62.8958 224.101 63.7372 223.875 64.4044L223.599 65.2748H225.759L225.482 64.4044C225.256 63.7082 224.98 62.8668 224.654 61.8805Z" fill="#2386C9"/>
<path d="M241.129 64.0272C241.732 65.0136 242.209 65.884 242.586 66.6673H242.636C242.586 65.4198 242.561 64.4914 242.561 63.9112V59.5305H244.093V69.1912H242.485L239.748 64.7525C239.271 63.9692 238.768 63.0989 238.266 62.0835H238.241C238.291 63.273 238.316 64.1723 238.316 64.8396V69.2202H236.784V59.5595H238.392L241.129 64.0272Z" fill="#2386C9"/>
<path d="M257.052 60.8651C256.625 60.8651 256.248 60.9521 255.897 61.0972C255.545 61.2422 255.244 61.4743 254.993 61.7934C254.741 62.0835 254.54 62.4607 254.39 62.9249C254.239 63.389 254.189 63.8822 254.189 64.4624C254.189 65.0427 254.264 65.5359 254.39 65.971C254.515 66.4062 254.716 66.7543 254.942 67.0444C255.193 67.3345 255.47 67.5376 255.821 67.7117C256.173 67.8567 256.575 67.9438 257.002 67.9438C257.328 67.9438 257.63 67.9148 257.981 67.8567C258.333 67.7987 258.609 67.7117 258.91 67.5956V69.1332C258.609 69.2203 258.308 69.3073 257.956 69.3653C257.604 69.4233 257.278 69.4524 256.901 69.4524C256.198 69.4524 255.57 69.3363 255.043 69.1042C254.515 68.8721 254.063 68.553 253.687 68.1178C253.335 67.6827 253.059 67.1895 252.883 66.5803C252.707 66 252.607 65.3328 252.607 64.6075C252.607 63.8822 252.707 63.186 252.908 62.5477C253.109 61.9095 253.385 61.3583 253.737 60.8941C254.113 60.4299 254.566 60.0818 255.118 59.7917C255.671 59.5015 256.299 59.3855 256.977 59.3855C257.328 59.3855 257.655 59.4145 257.981 59.4725C258.308 59.5306 258.584 59.6176 258.835 59.7046V61.2132C258.509 61.0972 258.182 61.0101 257.906 60.9521C257.63 60.8941 257.328 60.8651 257.052 60.8651Z" fill="#2386C9"/>
<path d="M268.881 67.7407H273V69.2203H267.349V59.5596H272.774V61.0391H268.881V63.5341H272.221V65.0137H268.881V67.7407Z" fill="#2386C9"/>
<path d="M115.127 28.2858L112.49 31.6221L101.138 19.6115L103.775 16.3042L115.127 28.2858Z" fill="#2386C9"/>
<path d="M112.867 31.9992L110.004 28.9531L130.874 2.87207L133.737 5.91824L112.867 31.9992Z" fill="#2386C9"/>
<path d="M115.127 36.1971L112.492 32.8879L100.127 46.0275L102.763 49.3366L115.127 36.1971Z" fill="#555656"/>
<path d="M112.862 32.5006L109.997 35.5449L121.134 49.5287L123.998 46.4844L112.862 32.5006Z" fill="#555656"/>
<path d="M129.417 2.20484L135.746 0L134.616 7.51388L129.417 2.20484Z" fill="#2386C9"/>
<path d="M124.796 44.9382L126.052 52.4521L119.698 50.3633L124.796 44.9382Z" fill="#555656"/>
<path d="M112.691 19.2344V24.2243" stroke="#8C8B8B" stroke-miterlimit="10"/>
<path d="M112.892 39.7742V44.9672" stroke="#8C8B8B" stroke-miterlimit="10"/>
<path d="M124.118 32.4343H118.869" stroke="#8C8B8B" stroke-miterlimit="10"/>
<path d="M106.714 32.2021L101.716 32.3468" stroke="#8C8B8B" stroke-miterlimit="10"/>
<path d="M112.892 45.1703C119.092 45.1703 124.118 39.3644 124.118 32.2023C124.118 25.0403 119.092 19.2344 112.892 19.2344C106.692 19.2344 101.666 25.0403 101.666 32.2023C101.666 39.3644 106.692 45.1703 112.892 45.1703Z" stroke="#8C8B8B" stroke-miterlimit="10"/>
</svg>
