<svg width="102" height="119" viewBox="0 0 102 119" fill="none" xmlns="http://www.w3.org/2000/svg">
<g filter="url(#filter0_d_1_416)">
<path d="M93.0348 73.7132C90.0678 81.7542 85.5807 88.7459 79.6965 94.4921C72.9989 101.032 64.2286 106.229 53.6292 109.936C53.2778 110.059 52.9185 110.157 52.5538 110.23C52.0722 110.325 51.5819 110.377 51.096 110.383H51.0009C50.4828 110.383 49.9624 110.331 49.4463 110.23C49.0815 110.157 48.7236 110.057 48.3776 109.939C37.7654 106.238 28.9844 101.043 22.2801 94.5028C16.3931 88.7569 11.907 81.7693 8.94437 73.7283C3.55692 59.1086 3.86349 43.0031 4.11035 30.0609L4.11466 29.8621C4.16424 28.7934 4.19615 27.6708 4.21383 26.4312C4.30395 20.345 9.14293 15.3096 15.2302 14.9702C27.9215 14.2618 37.7394 10.1226 46.1281 1.94629L46.2014 1.87881C47.5943 0.601208 49.3495 -0.0253046 51.096 0.000782097C52.7804 0.022557 54.4579 0.648423 55.8011 1.87859L55.8727 1.94608C64.2631 10.1226 74.0812 14.2618 86.7725 14.97C92.8595 15.3096 97.6987 20.3448 97.7886 26.4309C97.8063 27.6792 97.8382 28.8001 97.888 29.8621L97.8906 29.9462C98.1364 42.913 98.4414 59.0503 93.0348 73.7132Z" fill="#00DD80"/>
<path d="M93.0345 73.7132C90.0675 81.7541 85.5804 88.7458 79.6962 94.492C72.9986 101.032 64.2283 106.229 53.6289 109.936C53.2776 110.059 52.9183 110.157 52.5535 110.23C52.0719 110.325 51.5816 110.377 51.0957 110.383V0.00071907C52.7801 0.0224939 54.4577 0.64836 55.8008 1.87853L55.8724 1.94601C64.2628 10.1226 74.0809 14.2617 86.7722 14.97C92.8592 15.3095 97.6984 20.3447 97.7883 26.4309C97.806 27.6792 97.8379 28.8 97.8877 29.862L97.8903 29.9461C98.1361 42.9129 98.4412 59.0503 93.0345 73.7132Z" fill="#00AA63"/>
<path d="M78.5095 55.1916C78.5095 70.3277 66.2199 82.6484 51.0963 82.7023H50.9995C35.8315 82.7023 23.4888 70.3605 23.4888 55.1916C23.4888 40.0236 35.8315 27.6815 50.9995 27.6815H51.0965C66.2199 27.7354 78.5095 40.0563 78.5095 55.1916Z" fill="white"/>
<path d="M78.509 55.1916C78.509 70.3277 66.2193 82.6484 51.0957 82.7023V27.6815C66.2193 27.7354 78.509 40.0563 78.509 55.1916Z" fill="#E1EBF0"/>
<path d="M63.4858 51.2301L51.0959 63.6217L48.4187 66.299C48.1182 66.6001 47.7611 66.8389 47.368 67.0016C46.9749 67.1643 46.5535 67.2478 46.128 67.2471C45.7024 67.2478 45.2809 67.1643 44.8877 67.0016C44.4944 66.8389 44.1372 66.6001 43.8365 66.299L38.0804 60.5403C36.8155 59.2752 36.8155 57.2262 38.0804 55.9604C39.3437 54.6955 41.3951 54.6955 42.66 55.9604L46.128 59.4284L58.9062 46.6503C60.1711 45.3847 62.2227 45.3847 63.4858 46.6503C64.7507 47.9154 64.7507 49.9669 63.4858 51.2301Z" fill="#B4D2D7"/>
<path d="M63.4856 51.2301L51.0957 63.6217V54.4597L58.906 46.6505C60.1709 45.3847 62.2224 45.3847 63.4856 46.6505C64.7505 47.9153 64.7505 49.9669 63.4856 51.2301Z" fill="#6FA5AA"/>
</g>
<defs>
<filter id="filter0_d_1_416" x="0" y="0" width="102" height="118.383" filterUnits="userSpaceOnUse" color-interpolation-filters="sRGB">
<feFlood flood-opacity="0" result="BackgroundImageFix"/>
<feColorMatrix in="SourceAlpha" type="matrix" values="0 0 0 0 0 0 0 0 0 0 0 0 0 0 0 0 0 0 127 0" result="hardAlpha"/>
<feOffset dy="4"/>
<feGaussianBlur stdDeviation="2"/>
<feComposite in2="hardAlpha" operator="out"/>
<feColorMatrix type="matrix" values="0 0 0 0 0 0 0 0 0 0 0 0 0 0 0 0 0 0 0.1 0"/>
<feBlend mode="normal" in2="BackgroundImageFix" result="effect1_dropShadow_1_416"/>
<feBlend mode="normal" in="SourceGraphic" in2="effect1_dropShadow_1_416" result="shape"/>
</filter>
</defs>
</svg>
