<svg width="114" height="114" viewBox="0 0 114 114" fill="none" xmlns="http://www.w3.org/2000/svg">
<path d="M93.5901 12.5092V101.914C93.5901 108.427 88.2989 113.725 81.7959 113.725H31.5396C25.0365 113.725 19.7455 108.427 19.7455 101.914V12.5092C19.7452 5.99699 25.0365 0.698911 31.5396 0.698911H81.7959C88.2989 0.698911 93.5901 5.99699 93.5901 12.5092Z" fill="#56788B"/>
<path d="M93.5898 12.5092V101.914C93.5898 108.427 88.2986 113.725 81.7957 113.725H77.3808C83.8838 113.725 89.175 108.427 89.175 101.914V12.5092C89.175 5.99699 83.8838 0.698911 77.3808 0.698911H81.7957C88.2986 0.698911 93.5898 5.99699 93.5898 12.5092Z" fill="#415E6F"/>
<path d="M86.9767 12.2355V102.188C86.9767 105.08 84.6281 107.433 81.7385 107.433H31.597C28.7075 107.433 26.3587 105.08 26.3587 102.188V12.2355C26.3587 9.34364 28.7073 6.99041 31.597 6.99041H36.8308C37.5483 6.99041 38.1862 7.454 38.407 8.13833L39.7028 12.1627C40.0251 13.1627 40.9435 13.8338 41.9918 13.8338H71.3439C72.3902 13.8338 73.3108 13.1627 73.6331 12.1627L74.9289 8.13833C75.1497 7.454 75.7854 6.99041 76.5051 6.99041H81.7389C84.6279 6.99041 86.9767 9.34364 86.9767 12.2355Z" fill="#D9F0F4"/>
<path d="M86.9765 12.2355V102.188C86.9765 105.08 84.6279 107.433 81.7382 107.433H77.3234C80.2128 107.433 82.5617 105.08 82.5617 102.188V12.2355C82.5617 9.34364 80.2131 6.99041 77.3234 6.99041H81.7382C84.6277 6.99041 86.9765 9.34364 86.9765 12.2355Z" fill="#BAE1E5"/>
<path d="M65.6326 5.5522H47.7015C47.2624 5.5522 46.8413 5.72664 46.5308 6.03713C46.2203 6.34763 46.0458 6.76875 46.0458 7.20786C46.0458 7.64696 46.2203 8.06808 46.5308 8.37858C46.8413 8.68907 47.2624 8.86351 47.7015 8.86351H65.6326C66.0717 8.86351 66.4929 8.68907 66.8034 8.37858C67.1138 8.06808 67.2883 7.64696 67.2883 7.20786C67.2883 6.76875 67.1138 6.34763 66.8034 6.03713C66.4929 5.72664 66.0717 5.5522 65.6326 5.5522Z" fill="#415E6F"/>
<path d="M65.6326 96.6653H47.7015C47.2624 96.6653 46.8413 96.8398 46.5308 97.1502C46.2203 97.4607 46.0458 97.8819 46.0458 98.321C46.0458 98.7601 46.2203 99.1812 46.5308 99.4917C46.8413 99.8022 47.2624 99.9766 47.7015 99.9766H65.6326C66.0717 99.9766 66.4929 99.8022 66.8034 99.4917C67.1139 99.1812 67.2883 98.7601 67.2883 98.321C67.2883 97.8819 67.1139 97.4607 66.8034 97.1502C66.4929 96.8398 66.0717 96.6653 65.6326 96.6653Z" fill="#56788B"/>
<path d="M38.0976 27.3439V44.0372C38.0976 46.8276 35.8285 49.0991 33.0404 49.0991H11.571L2.84283 55.7394C2.55512 55.9594 2.20278 56.0781 1.84061 56.0771C1.58895 56.0771 1.33729 56.0219 1.1055 55.9049C0.829172 55.7679 0.596603 55.5564 0.434 55.2943C0.271396 55.0322 0.18522 54.7299 0.185181 54.4215L0.185181 27.3439C0.185181 24.5535 2.45453 22.282 5.24242 22.282H33.0406C35.8285 22.282 38.0976 24.5535 38.0976 27.3439Z" fill="#4DD4F7"/>
<path d="M38.0975 27.3439V44.0372C38.0975 46.8276 35.8284 49.0991 33.0403 49.0991H28.6254C31.4133 49.0991 33.6827 46.8276 33.6827 44.0372V27.3439C33.6827 24.5535 31.4136 22.282 28.6254 22.282H33.0403C35.8284 22.282 38.0975 24.5535 38.0975 27.3439Z" fill="#00C2F3"/>
<path d="M27.9583 30.1572H10.3252C9.88605 30.1572 9.46493 30.3316 9.15444 30.6421C8.84394 30.9526 8.66951 31.3737 8.66951 31.8128C8.66951 32.2519 8.84394 32.673 9.15444 32.9835C9.46493 33.294 9.88605 33.4685 10.3252 33.4685H27.9583C28.3974 33.4685 28.8185 33.294 29.129 32.9835C29.4395 32.673 29.6139 32.2519 29.6139 31.8128C29.6139 31.3737 29.4395 30.9526 29.129 30.6421C28.8185 30.3316 28.3974 30.1572 27.9583 30.1572ZM25.7543 37.6628H10.3252C9.88605 37.6628 9.46493 37.8372 9.15444 38.1477C8.84394 38.4582 8.66951 38.8793 8.66951 39.3184C8.66951 39.7575 8.84394 40.1786 9.15444 40.4891C9.46493 40.7996 9.88605 40.9741 10.3252 40.9741H25.7543C26.1934 40.9741 26.6145 40.7996 26.925 40.4891C27.2355 40.1786 27.4099 39.7575 27.4099 39.3184C27.4099 38.8793 27.2355 38.4582 26.925 38.1477C26.6145 37.8372 26.1934 37.6628 25.7543 37.6628Z" fill="white"/>
<path d="M100.76 41.1586C99.7335 40.1317 98.3684 39.5661 96.9165 39.5661C95.4646 39.5661 94.0994 40.1317 93.0729 41.1586L90.5733 43.6591C90.4196 43.8128 90.2976 43.9953 90.2144 44.1961C90.1312 44.397 90.0884 44.6122 90.0884 44.8296C90.0884 45.047 90.1312 45.2623 90.2144 45.4631C90.2976 45.664 90.4196 45.8465 90.5733 46.0002L95.9191 51.3477C96.0728 51.5015 96.2553 51.6235 96.4562 51.7068C96.657 51.79 96.8723 51.8329 97.0898 51.8329C97.3072 51.8329 97.5225 51.79 97.7234 51.7068C97.9242 51.6235 98.1067 51.5015 98.2604 51.3477L100.76 48.8472C102.879 46.7276 102.879 43.2785 100.76 41.1586ZM73.7166 76.8326L65.0991 68.212C64.9453 68.0582 64.7628 67.9362 64.562 67.853C64.3611 67.7697 64.1458 67.7269 63.9284 67.7269C63.711 67.7269 63.4957 67.7697 63.2948 67.853C63.094 67.9362 62.9115 68.0582 62.7577 68.212C59.7365 71.2341 59.7365 76.1516 62.7577 79.1737C64.2213 80.6379 66.1673 81.4444 68.2373 81.4444C70.3071 81.4444 72.2532 80.6379 73.7168 79.1737C74.0272 78.8632 74.2016 78.4421 74.2016 78.0031C74.2015 77.5641 74.0271 77.143 73.7166 76.8326Z" fill="#FF6B81"/>
<path d="M82.4957 87.5705C82.1877 87.6428 81.8725 87.6795 81.5561 87.6797C80.4886 87.6797 79.4568 87.2599 78.6795 86.4826L75.5578 83.3607L55.4536 63.2461C54.4467 62.2392 54.0394 60.811 54.3642 59.4248C54.6889 58.0418 55.6847 56.9429 57.0333 56.4871L64.5115 53.9537L72.4704 45.9911C75.6031 42.8582 79.7691 41.1303 84.1988 41.1303C87.884 41.1319 91.3883 42.3262 94.2618 44.5317C94.8487 44.9807 95.4051 45.4682 95.9272 45.9911C99.0614 49.1256 100.788 53.2932 100.786 57.7248C100.788 62.1595 99.0615 66.3274 95.9287 69.4601L87.9681 77.4209L85.4396 84.9011L85.4381 84.9027C84.9807 86.2499 83.8802 87.2473 82.4957 87.5705Z" fill="#FBDF63"/>
<path d="M85.4381 84.9027C84.9807 86.2497 83.8803 87.2473 82.4959 87.5703C82.188 87.6427 81.8727 87.6793 81.5564 87.6796C80.4888 87.6796 79.457 87.2597 78.6797 86.4824L75.5876 83.3901C76.3618 84.1488 77.3795 84.5577 78.4347 84.5577C78.7469 84.5577 79.0605 84.5217 79.3742 84.4484C80.7588 84.1252 81.8593 83.1278 82.3164 81.7808L82.318 81.7793L84.8467 74.299L92.8073 66.3382C95.94 63.2053 97.6663 59.0377 97.6648 54.603C97.6663 50.9144 96.4707 47.4086 94.2621 44.5317C94.849 44.9807 95.4053 45.4682 95.9274 45.9911C99.0617 49.1256 100.788 53.2932 100.786 57.7249C100.788 62.1596 99.0617 66.3274 95.929 69.4601L87.9684 77.4209L85.4399 84.9012L85.4381 84.9027Z" fill="#FFA402"/>
<path d="M69.3372 35.6601C66.599 35.6601 64.3716 37.8882 64.3716 40.627C64.3716 41.5414 65.1127 42.2827 66.0272 42.2827C66.9418 42.2827 67.6829 41.5414 67.6829 40.627C67.6829 39.714 68.4251 38.9714 69.3374 38.9714C69.5549 38.9714 69.7702 38.9285 69.971 38.8453C70.1719 38.7621 70.3544 38.6401 70.5081 38.4864C70.6619 38.3326 70.7838 38.1501 70.867 37.9492C70.9502 37.7484 70.993 37.5331 70.993 37.3156C70.993 37.0982 70.9501 36.8829 70.8669 36.6821C70.7837 36.4812 70.6617 36.2987 70.508 36.1449C70.3542 35.9912 70.1717 35.8693 69.9708 35.7861C69.7699 35.7029 69.5546 35.6601 69.3372 35.6601Z" fill="#FF6B81"/>
<path d="M69.3372 28.6825C62.753 28.6825 57.3964 34.0409 57.3964 40.6271C57.3964 41.5414 58.1375 42.2827 59.052 42.2827C59.9666 42.2827 60.7077 41.5414 60.7077 40.6271C60.7077 35.8667 64.5788 31.9938 69.3374 31.9938C69.5548 31.9938 69.7701 31.951 69.971 31.8678C70.1718 31.7845 70.3543 31.6626 70.5081 31.5088C70.6618 31.3551 70.7838 31.1725 70.8669 30.9717C70.9501 30.7708 70.9929 30.5555 70.9929 30.3381C70.9929 30.1206 70.9501 29.9054 70.8669 29.7045C70.7836 29.5036 70.6617 29.3211 70.5079 29.1674C70.3542 29.0136 70.1716 28.8917 69.9708 28.8085C69.7699 28.7253 69.5546 28.6825 69.3372 28.6825ZM101.27 77.5384C104.008 77.5384 106.236 75.3103 106.236 72.5714C106.236 71.6571 105.495 70.9158 104.58 70.9158C103.665 70.9158 102.924 71.6571 102.924 72.5714C102.924 73.4845 102.182 74.2271 101.27 74.2271C101.052 74.2271 100.837 74.2699 100.636 74.3531C100.435 74.4364 100.253 74.5583 100.099 74.7121C99.9454 74.8658 99.8235 75.0484 99.7403 75.2492C99.6571 75.4501 99.6143 75.6654 99.6143 75.8828C99.6143 76.1002 99.6571 76.3155 99.7403 76.5164C99.8236 76.7173 99.9455 76.8998 100.099 77.0535C100.253 77.2072 100.436 77.3292 100.636 77.4124C100.837 77.4956 101.053 77.5384 101.27 77.5384Z" fill="#FF6B81"/>
<path d="M111.556 70.9157C111.117 70.9157 110.695 71.0902 110.385 71.4007C110.074 71.7111 109.9 72.1323 109.9 72.5714C109.9 77.3317 106.029 81.2046 101.27 81.2046C100.831 81.2046 100.41 81.379 100.1 81.6895C99.7891 82 99.6147 82.4211 99.6147 82.8603C99.6147 83.2994 99.7891 83.7205 100.1 84.031C100.41 84.3415 100.831 84.5159 101.27 84.5159C107.855 84.5159 113.211 79.1576 113.211 72.5714C113.211 72.354 113.168 72.1387 113.085 71.9378C113.002 71.7369 112.88 71.5544 112.726 71.4006C112.573 71.2469 112.39 71.1249 112.189 71.0417C111.988 70.9585 111.773 70.9157 111.556 70.9157Z" fill="#FF6B81"/>
<path d="M37.8688 82.2453H44.9645C45.4036 82.2453 45.8248 82.0708 46.1352 81.7603C46.4457 81.4498 46.6202 81.0287 46.6202 80.5896C46.6202 80.1505 46.4457 79.7294 46.1352 79.4189C45.8248 79.1084 45.4036 78.934 44.9645 78.934H37.8688C37.4297 78.934 37.0086 79.1084 36.6981 79.4189C36.3876 79.7294 36.2132 80.1505 36.2132 80.5896C36.2132 81.0287 36.3876 81.4498 36.6981 81.7603C37.0086 82.0708 37.4297 82.2453 37.8688 82.2453ZM49.373 86.6603H37.8688C37.4297 86.6603 37.0086 86.8348 36.6981 87.1453C36.3876 87.4558 36.2132 87.8769 36.2132 88.316C36.2132 88.7551 36.3876 89.1762 36.6981 89.4867C37.0086 89.7972 37.4297 89.9716 37.8688 89.9716H49.373C49.8121 89.9716 50.2332 89.7972 50.5437 89.4867C50.8542 89.1762 51.0286 88.7551 51.0286 88.316C51.0286 87.8769 50.8542 87.4558 50.5437 87.1453C50.2332 86.8348 49.8121 86.6603 49.373 86.6603Z" fill="#90ABBD"/>
</svg>
