<svg width="116" height="118" viewBox="0 0 116 118" fill="none" xmlns="http://www.w3.org/2000/svg">
<path opacity="0.08" d="M58.1213 117.462C89.836 117.462 115.546 91.7522 115.546 60.0376C115.546 28.323 89.836 2.61323 58.1213 2.61323C26.4067 2.61323 0.69696 28.323 0.69696 60.0376C0.69696 91.7522 26.4067 117.462 58.1213 117.462Z" fill="black"/>
<path d="M58.1213 115.548C89.8359 115.548 115.546 89.8379 115.546 58.1233C115.546 26.4087 89.8359 0.698956 58.1213 0.698956C26.4066 0.698956 0.696869 26.4087 0.696869 58.1233C0.696869 89.8379 26.4066 115.548 58.1213 115.548Z" fill="url(#paint0_linear_1_367)"/>
<g opacity="0.16">
<path d="M58.1213 0.698956C26.4057 0.698956 0.696869 26.4078 0.696869 58.1233C0.696869 89.8389 26.4057 115.548 58.1213 115.548C89.8368 115.548 115.546 89.8391 115.546 58.1236C115.546 26.408 89.8368 0.698956 58.1213 0.698956ZM58.1213 111.72C28.5209 111.72 4.52519 87.7239 4.52519 58.1236C4.52519 28.5232 28.5209 4.52728 58.1213 4.52728C87.7216 4.52728 111.717 28.523 111.717 58.1233C111.685 87.7105 87.7081 111.687 58.1213 111.72Z" fill="url(#paint1_linear_1_367)"/>
</g>
<path d="M58.1212 109.805C29.5774 109.805 6.43921 86.6671 6.43921 58.1233C6.43921 29.5796 29.5774 6.44134 58.1212 6.44134C86.665 6.44134 109.803 29.5796 109.803 58.1233C109.771 86.6539 86.6516 109.773 58.1212 109.805ZM58.1212 10.2697C31.6926 10.2697 10.2675 31.6948 10.2675 58.1233C10.2675 84.5519 31.6926 105.977 58.1212 105.977C84.5498 105.977 105.975 84.5519 105.975 58.1233C105.944 31.7062 84.5384 10.3004 58.1212 10.2697Z" fill="url(#paint2_linear_1_367)"/>
<path d="M84.0467 43.6409C84.054 44.3322 83.8195 45.0043 83.3835 45.5408C82.9476 46.0774 82.3378 46.4447 81.6597 46.5791C78.6161 47.2471 72.4737 48.8206 68.7334 49.682C67.8882 49.8736 67.1337 50.3476 66.5943 51.0259C66.0549 51.7042 65.7629 52.5461 65.7664 53.4127C65.7817 57.4228 65.8335 64.0555 66.0018 65.8222C66.2083 68.4092 66.5514 70.9835 67.0296 73.5343C67.4938 76.1037 68.0815 78.6493 68.7907 81.1622C69.476 83.6483 70.2971 86.0951 71.2504 88.4913L71.3001 88.6158C71.8917 90.0859 71.1777 91.7589 69.7056 92.3484C68.2987 92.913 66.6967 92.287 66.0458 90.9185C64.8335 88.3491 63.7681 85.7129 62.8549 83.0226C61.9349 80.3687 61.1422 77.6724 60.4795 74.9429C60.2612 74.0606 60.066 73.1723 59.8784 72.2804C59.8338 72.0661 59.7168 71.8737 59.547 71.7357C59.3772 71.5976 59.1649 71.5223 58.9461 71.5224H57.2961C57.0768 71.5225 56.8643 71.5981 56.6941 71.7365C56.524 71.8748 56.4067 72.0676 56.362 72.2822C56.1782 73.1734 55.9778 74.0611 55.7609 74.9448C55.0998 77.6747 54.3071 80.3711 53.3855 83.0244C52.4708 85.7142 51.4055 88.3503 50.1945 90.9203C49.5131 92.352 47.8 92.9589 46.3701 92.2775C45.0015 91.6266 44.3755 90.0227 44.9402 88.6177L44.9899 88.4931C45.9432 86.0969 46.7644 83.6502 47.4497 81.164C48.1589 78.6511 48.7465 76.1055 49.2107 73.5361C49.6899 70.9854 50.033 68.4111 50.2386 65.824C50.4071 64.0573 50.4568 57.4248 50.4739 53.4145C50.4766 52.5482 50.1842 51.7067 49.645 51.0286C49.1057 50.3505 48.3517 49.8762 47.5069 49.6838C43.7666 48.8206 37.6243 47.2491 34.5807 46.5809C33.9025 46.4465 33.2927 46.0792 32.8568 45.5427C32.4209 45.0061 32.1863 44.334 32.1936 43.6427C32.2529 42.0577 33.5871 40.8212 35.172 40.8826C35.3405 40.8883 35.507 40.9095 35.6717 40.9457L35.8459 40.984C43.1437 42.7373 50.6142 43.6714 58.1189 43.769C65.6236 43.6706 73.094 42.7365 80.3919 40.984L80.5662 40.9457C82.1167 40.6089 83.646 41.5927 83.981 43.1432C84.0198 43.3061 84.041 43.4744 84.0467 43.6409ZM58.1214 38.982C62.3498 38.982 65.7781 35.5537 65.7781 31.3253C65.7781 27.097 62.3498 23.6687 58.1214 23.6687C53.8931 23.6687 50.4648 27.097 50.4648 31.3253C50.4648 35.5537 53.8931 38.982 58.1214 38.982Z" fill="url(#paint3_linear_1_367)"/>
<path opacity="0.16" d="M58.1213 0.698956C26.4057 0.698956 0.696869 26.4078 0.696869 58.1233C0.696869 89.8389 26.4057 115.548 58.1213 115.548C89.8368 115.548 115.546 89.8391 115.546 58.1236C115.546 26.408 89.8368 0.698956 58.1213 0.698956ZM58.1213 113.634C27.4643 113.634 2.61092 88.7805 2.61092 58.1233C2.61092 27.4662 27.4643 2.613 58.1213 2.613C88.7782 2.613 113.632 27.4662 113.632 58.1233C113.632 88.7805 88.7782 113.634 58.1213 113.634Z" fill="black"/>
<defs>
<linearGradient id="paint0_linear_1_367" x1="58.1217" y1="115.554" x2="58.1217" y2="0.705774" gradientUnits="userSpaceOnUse">
<stop stop-color="#3871E9"/>
<stop offset="1" stop-color="#61C5F6"/>
</linearGradient>
<linearGradient id="paint1_linear_1_367" x1="58.1217" y1="115.554" x2="58.1217" y2="0.705774" gradientUnits="userSpaceOnUse">
<stop/>
<stop offset="0.36" stop-opacity="0"/>
</linearGradient>
<linearGradient id="paint2_linear_1_367" x1="58.1216" y1="109.812" x2="58.1216" y2="6.4482" gradientUnits="userSpaceOnUse">
<stop stop-color="#E2EFF6"/>
<stop offset="1" stop-color="white"/>
</linearGradient>
<linearGradient id="paint3_linear_1_367" x1="58.1199" y1="92.5634" x2="58.1199" y2="23.6755" gradientUnits="userSpaceOnUse">
<stop stop-color="#E2EFF6"/>
<stop offset="1" stop-color="white"/>
</linearGradient>
</defs>
</svg>
