<svg width="30" height="54" viewBox="0 0 30 54" fill="none" xmlns="http://www.w3.org/2000/svg">
<path d="M12.5469 5.70312H7.98438V0H5.70312V5.70312H1.14062C0.838112 5.70312 0.54799 5.8233 0.334082 6.03721C0.120173 6.25111 0 6.54124 0 6.84375V38.7812C0 39.0838 0.120173 39.3739 0.334082 39.5878C0.54799 39.8017 0.838112 39.9219 1.14062 39.9219H5.70312V45.625H7.98438V39.9219H12.5469C12.8494 39.9219 13.1395 39.8017 13.3534 39.5878C13.5673 39.3739 13.6875 39.0838 13.6875 38.7812V6.84375C13.6875 6.54124 13.5673 6.25111 13.3534 6.03721C13.1395 5.8233 12.8494 5.70312 12.5469 5.70312Z" fill="url(#paint0_linear_1_452)"/>
<path d="M28.5156 13.6875H23.9531V7.98438H21.6719V13.6875H17.1094C16.8069 13.6875 16.5167 13.8077 16.3028 14.0216C16.0889 14.2355 15.9688 14.5256 15.9688 14.8281V46.7656C15.9688 47.0681 16.0889 47.3583 16.3028 47.5722C16.5167 47.7861 16.8069 47.9062 17.1094 47.9062H21.6719V53.6094H23.9531V47.9062H28.5156C28.8181 47.9062 29.1083 47.7861 29.3222 47.5722C29.5361 47.3583 29.6562 47.0681 29.6562 46.7656V14.8281C29.6562 14.5256 29.5361 14.2355 29.3222 14.0216C29.1083 13.8077 28.8181 13.6875 28.5156 13.6875Z" fill="url(#paint1_linear_1_452)"/>
<defs>
<linearGradient id="paint0_linear_1_452" x1="6.84375" y1="45.625" x2="6.84375" y2="0" gradientUnits="userSpaceOnUse">
<stop stop-color="#009E77"/>
<stop offset="1" stop-color="#00D291"/>
</linearGradient>
<linearGradient id="paint1_linear_1_452" x1="22.8125" y1="7.98438" x2="22.8125" y2="53.6094" gradientUnits="userSpaceOnUse">
<stop stop-color="#FF4D6C"/>
<stop offset="1" stop-color="#FF0825"/>
</linearGradient>
</defs>
</svg>
