<svg width="42" height="42" viewBox="0 0 42 42" fill="none" xmlns="http://www.w3.org/2000/svg">
<path d="M21 41.5078C32.3262 41.5078 41.5078 32.3262 41.5078 21C41.5078 9.67385 32.3262 0.492188 21 0.492188C9.67385 0.492188 0.492188 9.67385 0.492188 21C0.492188 32.3262 9.67385 41.5078 21 41.5078Z" fill="url(#paint0_linear_1_433)"/>
<path opacity="0.49" d="M40.8751 26.073L23.1645 8.36243H18.5671V10.3886C15.051 11.0174 12.9803 13.1849 12.9803 16.5257C12.9803 18.3331 13.5452 19.5812 14.4106 20.4752L18.5469 24.6114H12.7036C12.7036 26.6105 13.3696 28.2462 14.5639 29.4394L26.0139 40.8894C29.5942 39.9837 32.864 38.1295 35.4793 35.5221C38.0946 32.9147 39.9585 29.6504 40.8751 26.073Z" fill="url(#paint1_linear_1_433)"/>
<path d="M23.3712 31.4811V33.6376H18.7739V31.4937C15.0255 30.8102 12.7036 28.3443 12.7036 24.6113H18.5865C18.5865 26.004 19.7247 26.6995 20.9982 26.6995C22.1925 26.6995 23.3306 26.0917 23.3306 25.03C23.3306 23.7408 21.7338 23.3671 19.776 22.8832C16.7866 22.1403 12.9803 21.2174 12.9803 16.5257C12.9803 13.1849 15.051 11.0174 18.5671 10.3887V8.36249H23.1645V10.4097C26.659 11.0914 28.629 13.3943 28.629 16.8221L22.9165 16.835C22.9165 15.627 21.95 15.037 20.7688 15.037C19.7426 15.037 18.7628 15.4593 18.7628 16.3495C18.7628 17.5289 20.3113 17.9155 22.2724 18.4127C25.3187 19.1992 29.2967 20.1969 29.2967 24.9164C29.2964 28.6012 26.9169 30.824 23.3712 31.4811Z" fill="white"/>
<defs>
<linearGradient id="paint0_linear_1_433" x1="0.492188" y1="21" x2="41.5078" y2="21" gradientUnits="userSpaceOnUse">
<stop stop-color="#2BC4F3"/>
<stop offset="0.5" stop-color="#00AEEE"/>
<stop offset="1" stop-color="#0095DA"/>
</linearGradient>
<linearGradient id="paint1_linear_1_433" x1="13.4261" y1="13.4628" x2="35.4824" y2="35.519" gradientUnits="userSpaceOnUse">
<stop/>
<stop offset="1" stop-opacity="0"/>
</linearGradient>
</defs>
</svg>
